<?xml version="1.0" encoding="utf-8"?>
<!-- Generator: Adobe Illustrator 21.1.0, SVG Export Plug-In . SVG Version: 6.00 Build 0)  -->
<svg version="1.1" id="Calque_1" xmlns="http://www.w3.org/2000/svg" xmlns:xlink="http://www.w3.org/1999/xlink" x="0px" y="0px"
	 viewBox="0 0 432 432" style="enable-background:new 0 0 432 432;" xml:space="preserve">
<style type="text/css">
	.st0{fill:#683C11;}
	.st1{fill:#E94E1B;}
	.st2{fill:#F39200;}
	.st3{fill:#EAB26C;}
	.st4{fill:#E98E00;}
	.st5{fill:#E7CEB1;}
	.st6{fill:#A48A7B;}
	.st7{fill:#CBBBA0;}
	.st8{fill:#E94742;}
	.st9{fill:#EB6561;}
	.st10{fill:#EC9490;}
	.st11{fill:#662483;}
	.st12{fill:#951B81;}
	.st13{fill:#95C11F;}
	.st14{fill:#1D71B8;}
	.st15{fill:#36A9E1;}
	.st16{fill:#A3195B;}
	.st17{fill:#EE75AA;}
	.st18{fill:#008D36;}
	.st19{fill:#D64515;}
	.st20{fill:#8C1812;}
	.st21{fill:#BEBBBB;}
	.st22{fill:#13110C;}
	.st23{fill:#B01816;}
	.st24{fill:#BE1622;}
	.st25{fill:#634E42;}
	.st26{fill:#432918;}
	.st27{fill:#D27E12;}
	.st28{fill:#8EB5CD;}
	.st29{fill:#FDE2C3;}
	.st30{fill:#3AAA35;}
	.st31{fill:#FBD3BA;}
	.st32{fill:#FFFFFF;}
	.st33{fill:#FAD5AB;}
	.st34{fill:#99191D;}
	.st35{fill:#D51116;}
	.st36{fill:#702283;}
	.st37{fill:#A68B75;}
	.st38{fill:#D2B99A;}
	.st39{fill:#E50071;}
	.st40{fill:#C23617;}
	.st41{fill:#6E3B11;}
	.st42{fill:#898584;}
	.st43{fill:#8EBF22;}
	.st44{fill:#878787;}
	.st45{fill:#0080BF;}
	.st46{fill:#F297B2;}
	.st47{fill:#D484B6;}
	.st48{fill:#F4C4DD;}
	.st49{fill:#BDBABA;}
	.st50{fill:#F6BBC5;}
	.st51{fill:#5E5A57;}
	.st52{fill:#2FAC66;}
	.st53{fill:#00A19A;}
	.st54{fill:#006CB5;}
	.st55{fill:#A29F9D;}
	.st56{fill:#82BB26;}
	.st57{fill:#24211E;}
	.st58{fill:#A81A1F;}
	.st59{fill:#666362;}
	.st60{fill:#911A1B;}
	.st61{fill:#B17F4A;}
	.st62{fill:#7D4E24;}
	.st63{fill:#FDD8A8;}
	.st64{fill:#D60B52;}
	.st65{fill:#62852D;}
	.st66{fill:#593A1E;}
	.st67{fill:#D86A12;}
	.st68{fill:#B55918;}
	.st69{fill:#C6C6C6;}
	.st70{fill:#F6BD00;}
	.st71{fill:#7B6A58;}
	.st72{fill:#936037;}
</style>
<g>
	<path class="st25" d="M278.8,231.9c-0.1-0.2-0.4-0.3-0.7-0.3c-0.6-0.1-1.3,0-2.3,0.6c-2.9,1.9-5.2,4.7-7.1,7.2
		c-2.4,3-4.8,6-7.2,9.1c-2.1,2.7-4.3,5.4-5.7,8.7c-1.5,3.5-1.9,7.5-1.2,11.2c-0.1,0.5-0.1,1-0.2,1.5c-0.1,0.4-0.3,0.7-0.5,1
		c-1.2,2-3,3.5-5,5.2c-0.9,0.7-1.7,1.4-2.3,2.3c-0.5,0.4-1,0.8-1.5,1.3c-0.2,0.2-0.4,0.5-0.6,0.7c-1.2-3.6-4-6.2-6.7-8.5
		c-0.9-0.7-1.8-1.5-2.7-2.2c-4.2-3.3-8.6-6.8-11.4-11.7c-1.7-3.1-2.7-6.5-3.2-10.1c-0.1-3.9,0.1-7.7,0.6-11.6c0.5-1.8,1.1-3.9,1-5.7
		c0.1-0.8,0.1-1.5-0.1-2.1c0-0.2,0-0.4-0.2-0.6c-0.3-0.6-1-1-2-1.1c-1.3-0.6-2.7-0.9-3.6-0.2c-1,0.8-0.6,2.6,0.1,4.2
		c0.1,1.8,0.6,3.9,0.8,5.3c0.4,4.6,0.5,9.2,0.3,13.9c-0.2,1.1-0.4,2.3-0.6,3.4c-0.5,1.4-1.1,2.7-1.9,4c-2.9,4.2-7.1,7.8-11,10.6
		c-5.1,3.6-11.5,6.8-13.7,12.9c-0.6-0.9-1.2-1.7-1.9-2.5c-1.6-1.8-3.9-3-5-5.1c-0.9-1.6-1-3.5-1.3-5.3c0.6-4.2-0.3-8.6-2.4-12.3
		c-0.1-0.2-0.3-0.4-0.4-0.7c-1.1-1.8-2.4-3.6-3.8-5.2c-3.1-3.6-6.6-7-10.2-10.1c-0.9-0.8-1.9-1.6-2.9-2.3c-0.5-0.5-1-0.9-1.5-1.3
		c-1.3-1.2-3.3-3.2-5.2-3.5c-0.3-0.1-0.7,0-1,0c-0.3-0.2-0.7-0.2-0.9,0.2c0,0.1,0,0.1-0.1,0.2c-0.4,0.3-0.7,0.7-1,1.1
		c-0.7,1.4-0.3,2.8,0.3,4.2c0,3.9-0.1,7.8,0.3,11.6c0.4,3.6,2,6.7,4.7,9.2c2.8,2.7,6.2,4.7,9.4,6.8c1,0.7,2.1,1.4,3.1,2.1
		c0.4,0.3,0.8,0.6,1.2,0.9c1.9,1.4,3.6,2.7,5.2,4c0.2,0.2,0.6,0.5,1,0.7c0,0,0,0,0,0c0.1,0,0.1,0.1,0.2,0.1c0.7,0.6,1.5,1.2,2.2,1.7
		c4.4,3.6,8.3,7.9,9.1,13.7c0,0.2,0.1,0.3,0.2,0.4l-0.5,5.1c-0.6,6.2-1.4,13.3-0.7,20.2c0,0.4,0,0.7,0.1,1.1c-0.2,2.4,0,4.7,0.4,7.1
		c-0.1,1.2,0.4,2.5,0.9,3.7c0.7,2.5,1.7,5,2.8,7.5c0.2,0.7,0.5,1.4,0.7,2.1c0.5,1.3,0.9,2.7,1.4,4c1,3.8,1.9,7.7,2.6,11.7
		c0.1,0.5,0.2,1,0.2,1.5c0.5,4.6,0.9,9.3,2.6,13.7c0.8,2.1,3.2,6.6,5.6,3.3c2.7-3.7,1.3-8.9,2.4-13c0.7-2.7,2.4-5.1,3.5-7.6
		c0.2-0.5,0.4-0.9,0.6-1.4c0.1-0.1,0.2-0.1,0.2-0.2c3.1-5.3,4.2-11.6,5.2-17.2l0.1-0.5l0.2,1.3c1,5.6,2,11.9,5,16.9c0,0,0,0,0,0
		c0.5,1.2,1.1,2.3,1.8,3.4c0.4,1,0.8,2.1,1.2,3.1c0.7,1.9,1.3,3.8,1.7,5.7c0,2.7-0.3,5.8,0.8,8c0.8,1.7,2.6,1.8,4,0.6
		c2.1-1.8,2.8-5.4,3.1-8c0.2-1.6,0.3-3.1,0.4-4.7c0.2-1.3,0.3-2.6,0.4-3.8c0.1-0.3,0.1-0.7,0.2-1c0-0.3,0.1-0.6,0.1-0.9
		c0,0,0-0.1,0-0.1c0.9-3.8,2.6-7.4,4.4-10.9c3.2-6.4,6.5-12.9,5.9-20.3c0-0.1,0-0.2-0.1-0.3c1.3-11.5-0.1-23.2-1-34.7
		c0.4-1.2,0.8-2.3,1.4-3.4c0.4-0.7,0.8-1.2,1.3-1.8c2.3-1.7,5.3-2.9,7.9-4.3c0.5-0.2,1-0.3,1.5-0.5c0.1,0,0.2,0,0.4,0
		c1,0,1.8-0.9,2.1-1.2c1.4-1.5,3-3,4.7-4.6c8-7.7,17-16.5,13.9-26.1c0,0-1-4.2,0.7-8.5C280,233.7,279.6,232.5,278.8,231.9z
		 M175.2,267.7c-3.7-3-7.8-5.4-11.5-8.5c-3.3-2.8-5.9-6.1-7.3-10.2c-0.1-0.4-0.2-0.7-0.3-1.1c0-1.2-0.1-2.3-0.2-3.5
		c0.1-1.2,0-4.2-1.3-7.3c0.1-0.1,0.1-0.2,0.1-0.3c0.5-2.3,3.7,1.1,4.2,1.5c0.7,0.6,1.3,1.2,2,1.8c1.2,1,2.4,2,3.6,3
		c1.8,1.5,3.6,3,5.2,4.6c1.2,1.4,2.6,2.9,3.9,4.4c2.6,3.9,3.8,8.1,4.3,12.7C177.6,266.2,176.6,267.6,175.2,267.7z M208.6,349.1
		c-0.1,0.3-0.3,0.6-0.4,0.9c-1.2,2.4-2.7,4.6-3.4,7.2c-0.3,1.3-0.6,2.6-0.7,3.9c0,0.7,0.1,1.5-0.1,2.1c0.2,1.1-0.5,1.6-2,1.5
		c-1.1-4.2-1.8-8.6-2.5-12.8c-0.8-4.6-1.5-9.4-2.8-13.9c-0.6-2-1.2-4-1.9-6c-0.2-0.8-0.3-1.7-0.5-2.5c-0.2-0.8-0.6-1.8-0.5-2.6
		c-0.3-0.9,0.2-1.4,1.4-1.7c1.6,1.1,2.3,3.5,3,5.4c0.7,1.9,1.7,3.6,3,5.1c1.2,1.4,2.7,2.6,4.2,3.9c1,1,2,2,2.8,3
		C209.2,344.5,209.7,346.6,208.6,349.1z M241.3,328.3c0,0.1,0,0.1,0,0.2c-1.3,3.1-2.5,6.3-3.4,9.5c-0.6,2-1,4.1-1.4,6.1
		c0,0.1-0.1,0.2-0.1,0.3c-1.4,3.8-2.4,7.8-3.2,11.8c-0.3,1.8-0.6,3.7-0.9,5.5c-0.2,1-0.3,2.1-0.6,3.1c-0.2,0.8-0.6,3.3-1.6,2.5
		c-0.5-1.5-0.6-3.2-0.7-5c0-0.6-0.1-1.3-0.2-1.9c0-0.2,0-0.3,0-0.5c-0.1-1.6-0.2-3.3-0.4-4.9c-0.7-3.8-3.7-7.4-3.3-11.3
		c0.2-2,1.6-3.8,2.9-5.4c2.6-2.6,4.1-4.8,5.3-7c1.1-1.4,2.2-2.9,3.3-4.3c1.5-2,3.3-4.6,6.1-3.8c0,0,0,0,0,0.1
		C242.6,325.1,242,326.7,241.3,328.3z M243.8,314.8c-0.1,0.1-0.1,0.1-0.1,0.2c-0.3,1.1-0.5,2.1-0.8,3.2c-0.3,0-0.7,0.1-1.1,0.2
		c-3.4,1.3-6.2,5.3-8.3,8.1c-1.5,2-2.9,4.1-4.5,6c-1.5,1.8-3.4,3.3-5,5.1c-0.3,0.3-0.5,0.6-0.7,0.9c-0.3-0.7-0.5-1.5-0.8-2.2
		c-0.5-1.6-1-3.2-1.6-4.8c-0.5-1.6-1-3.1-1.4-4.7c0,0,0-0.1,0-0.1c-0.3-1.1-0.8-2.4-2.3-1.9c-0.8,0.3-1.3,1.2-1.6,2.2
		c-0.1,0.4-0.3,0.7-0.4,1.1c-1,2.6-1.5,5.6-2.4,8.2c-0.5,1.4-1.3,2.7-1.9,4.1c-1.2-1.8-2.8-3.3-4.3-4.8c-1.7-1.6-3.1-3.3-4.5-5
		c-0.2-0.3-0.4-0.7-0.6-1c-1.2-2.1-2.4-4.2-4.7-6.6c-0.3-0.3-0.6-0.6-0.9-0.9c-0.9-1.1-2-1.9-3.5-2c-0.1,0-0.2,0-0.3,0
		c-1.2-3-1.3-6.2-1.2-9.4c0.2-3.7,0.5-7.4,0.7-11.1c0.3-3.8,0.5-7.7,0.8-11.5c0.2-3.4,0.7-6.6,2.7-9.3c0.9-0.9,1.9-1.8,2.7-2.6
		c1.1-1,2.1-2,3.2-2.9c2.8-2.1,5.8-4,8.5-6c2.7-2.1,5.3-4.4,7.5-7.1c0,0.7-0.1,1.4-0.1,2c-1.3,18.9-1.7,37.8-1.2,56.7
		c0,0.1,0,0.2,0,0.3c0,0.5-0.1,1.3,0.1,1.9c0,0.2,0,0.4,0.2,0.5c0,0,0.1,0.1,0.1,0.1c0.1,0.2,0.3,0.3,0.6,0.4c0,0,0,0,0.1,0
		c0.6,0.2,1.3,0,1.7-0.6c0.3-0.4,0.4-0.8,0.5-1.2c0-0.1,0-0.1,0-0.2c0,0,0-0.1,0-0.1c0-0.1,0-0.2,0-0.4c0.3-20.3,0.5-40.8,0.7-61.2
		c0.8,1.8,2,3.5,3.3,5c1.4,1.8,3,3.3,4.9,4.7c2.4,1.7,4.9,3,7.1,4.8c1,1,1.9,2.1,2.8,3.4c2.1,3.4,3.4,7.2,4.4,11
		c0,2.7,0.6,5.5,1,8.1C243.7,301.8,244.7,308.4,243.8,314.8z M274.5,254.1c-0.1,0.1-0.2,0.3-0.2,0.4c-2.2,3.4-4.8,6.7-7.7,9.7
		c-0.2,0.1-0.3,0.3-0.5,0.4c-1.3,1-3.5,3.2-5.2,3.5c-0.6,0.1-1.1,0.1-1.6-0.1c-0.2-1-0.3-2-0.5-3c0.7-6.9,3.6-13.3,7.7-18.9
		c3.4-3.5,7.1-6.9,9.9-10.2c0,0.2,0,0.4,0,0.6c-0.4,2-0.6,4.1-0.4,6.1c0.2,1.7,0.6,3.4,0.5,5.1C276.1,249.9,275.4,252.1,274.5,254.1
		z"/>
	<path class="st25" d="M199.4,143.2c0.2-0.3,0.1-0.7-0.3-0.9c-0.2-0.1-0.3-0.1-0.5-0.1c-0.2-0.3-0.6-0.3-0.9-0.1
		c-3.5,2.4-6,6.2-7,10.3c-1,4.1-0.4,8.6,1.6,12.3c0.1,0.2,0.3,0.3,0.6,0.4c0,0,0,0,0,0c0.2,0,0.4-0.1,0.6-0.3
		c1.2-1.8,3.3-2.8,5.3-3.7l0.2-0.1c2.4-1.1,4.8-2.4,5.8-4.8c0.3-0.6,0.3-1.1,0-1.5c-0.4-0.6-1.1-0.7-2-0.4c-0.8,0.3-2.1,0.5-3.2,0.1
		c-1.3-0.5-2.2-1.8-2.5-3.5c-0.2-1.3,0.1-2.8,0.8-4.7C198.4,145.1,198.9,144.1,199.4,143.2z"/>
	<path class="st25" d="M206.4,141.1c-1.4,0-2.6,0.5-3.8,1c-0.1,0-0.2,0.1-0.2,0.2c-1.5,1.5-1.7,2.9-2,4.7l0,0.2
		c-0.1,0.7-0.2,1.6,0.4,2.3c0.5,0.7,1.4,0.8,2.1,0.9c0.1,0,0.2,0,0.3,0.1c2.7,0.5,4.8,3.4,4.4,6.1c0,0.3,0.1,0.6,0.4,0.7
		c0.1,0,0.2,0.1,0.3,0.1c0.2,0,0.4-0.1,0.5-0.2c1.7-2,2.8-3.8,3.4-5.6c0.8-2.4,0.8-4.7-0.1-6.7C210.9,142.6,208.7,141.1,206.4,141.1
		z"/>
	<path class="st25" d="M203.4,160.5c-0.1,0-0.2,0.1-0.3,0.2c-0.2-0.2-0.5-0.3-0.8-0.1c-0.3,0.2-0.5,0.6-0.3,0.9
		c0.8,1.6,2.4,2.9,4.4,3.6c1,0.3,2,0.5,3.2,0.5c0.7,0,1.5-0.1,2.4-0.2c2.3-0.4,5.6-1.3,8.1-3.9c2.7-2.7,3.9-6.8,3.3-11
		c-0.3-1.8-1-4.2-2.9-5.7c-0.2-0.2-0.6-0.4-1-0.5c-0.6-0.1-1.7,0-2.4,2.1c-1.2,3.6-2.9,6.7-5,9.1C209.7,158,206.6,159.9,203.4,160.5
		z"/>
	<path class="st25" d="M188.1,173.6c1,2.1,2.6,4.6,5.2,5.5c0.8,0.3,1.7,0.4,2.5,0.4c0.7,0,1.3-0.1,2-0.1l8.5-0.7
		c2.8-0.2,5.6-0.5,8.3-1.5c2.5-1,4.8-2.8,6.9-5.2c2.4-2.8,4.2-6.9,2.2-10.2c-0.2-0.3-0.6-0.4-0.9-0.2c-0.1,0-0.3,0.1-0.4,0.2
		c-5.9,5.6-14.2,7.3-21.1,4.4l-0.1,0c-0.6-0.3-1.4-0.6-2.2-0.5c-0.6,0.1-1.1,0.4-1.5,0.6l-0.2,0.1c-1.8,1.1-3.9,1.6-6,1.5l-0.3,0
		c-0.9,0-1.8-0.1-2.7,0.5C186.8,169.3,187.2,171.7,188.1,173.6z"/>
	<path class="st25" d="M231.4,136.1c-0.3-0.2-0.7-0.1-0.9,0.2c0,0,0,0,0,0.1c-0.1,0.1-0.2,0.3-0.2,0.5c-0.1,2.4-1.3,4.5-2.6,6.7
		c-1,1.6-1.9,3.3-2.5,5.1c-0.7,2.4-0.6,5-0.5,7.7c0.3,4.1,0.7,8.2,1.2,12.3c0,0.2,0.2,0.5,0.4,0.5c0.1,0,0.2,0,0.2,0
		c0.2,0,0.3-0.1,0.4-0.2c6.5-5.6,10.1-14.3,9.5-22.9C236.2,143.4,235.3,138.5,231.4,136.1z"/>
	<path class="st25" d="M187.6,165.7c-3.9-0.4-7.3-3.3-8.4-7.1c-0.4-1.5-0.5-3-0.6-4.6c-0.1-1.9-0.2-3.9-1-5.8
		c-0.3-0.6-0.8-1.4-1.5-1.7c-0.4-0.2-0.9-0.2-1.3,0c-0.7,0.3-1,1.1-1.2,1.5c-3,8.3-2.4,18.4,1.7,27.7c0.7,1.5,1.9,3,3.3,3
		c0.3,0,0.5,0,0.8-0.1c0.8-0.3,1.3-1,1.7-1.6c0.5-0.9,1-1.8,1.6-2.7c1.5-2.7,3.1-5.5,5.3-7.1c0.3-0.2,0.3-0.5,0.2-0.8
		C188.1,166,187.9,165.7,187.6,165.7z"/>
	<path class="st25" d="M235.3,165.2c-1.1-0.2-2.3,0.3-3.3,1.4c-0.3,0.3-0.5,0.6-0.7,1c-0.3,0.5-0.7,1-1.1,1.3c0,0-0.1,0.1-0.1,0.1
		c-4.8,7.3-11.8,10.9-20.3,10.4l-0.2,0c-0.9,0-1.7-0.1-2.6,0.2c-1,0.4-2,1.4-1.9,2.7c0.1,0.7,0.6,1.3,0.9,1.6c2.5,2.6,6.1,3,9.7,3.5
		c0.6,0.1,1.2,0.1,1.8,0.2c0.5,0.1,1,0.2,1.5,0.2c1.5,0.2,3,0.5,4.5,0.5c1.3,0,2.5-0.2,3.7-0.7c2.6-1.1,4.3-3.5,5.4-5.2
		c2.3-3.7,4-7.8,4.8-12.1C237.8,168.2,237.4,165.7,235.3,165.2z"/>
	<path class="st25" d="M190.5,191.7c0.1,0,0.1,0,0.2,0c0.7,0,1.3-0.5,1.7-0.8c0.5-0.4,1.1-0.8,1.6-1.3c1.8-1.4,3.6-2.8,4.8-4.8
		c0.1-0.1,0.3-0.3,0.5-0.6c0.3-0.4,0.8-1,1.4-1.8c0.2-0.2,0.2-0.6,0-0.8c-0.2-0.2-0.5-0.3-0.7-0.2c-2,0.7-4.1,0.1-6.3-0.6
		c-1.3-0.4-2.6-0.8-4-0.9c-1.6-0.2-2.4,0.4-2.7,0.9c-0.3,0.4-0.3,0.9-0.4,1.3c-0.2,3,0.7,5.9,2.4,8.3
		C189.2,191,189.7,191.6,190.5,191.7z"/>
	<path class="st25" d="M234.6,128.8c0.1,0,0.1,0,0.2,0c0.1,0,0.1-0.1,0.2-0.1c0.1,0,0.1,0,0.2,0c1.9-0.5,2.8-2.4,3.6-4.1
		c0.1-0.2,0.2-0.5,0.4-0.7c1.1-2.2,2.7-4,4.8-5.4c0.2-0.1,0.4-0.3,0.7-0.4c1.2-0.8,2.5-1.6,3.1-3.1c0.8-1.9-0.1-3.9-0.9-5.6
		c-0.1-0.2-0.3-0.6-0.8-0.8c-0.5-0.2-0.9,0.1-1.1,0.2l-3.7,2.2c-1.5,0.9-3.1,1.9-4.4,3.3c-1.1,1.2-1.9,2.8-2.5,4.9
		c-1,3.2-1,6.4-0.2,9.1C234,128.6,234.3,128.8,234.6,128.8z"/>
	<path class="st25" d="M239.8,128.1c0.9,0.1,1.8,0.1,2.7,0.1c1.3,0,2.6-0.1,3.9-0.4c2.5-0.6,4.5-2.1,5.5-4c1-1.9,1.1-4.3,0.1-6.2
		c-0.1-0.1-0.2-0.5-0.6-0.6c-0.4-0.1-0.7,0-0.9,0.1c-2.3,0.9-4.7,1.8-6.8,3.3c-2.4,1.7-4,3.9-4.6,6.2c-0.1,0.2,0,0.5,0.2,0.6
		c0,0.1-0.1,0.1-0.1,0.2C239.1,127.8,239.4,128.1,239.8,128.1z"/>
	<path class="st25" d="M255.4,111.1c-0.1-0.7-0.4-1.1-0.8-1.3c-0.4-0.2-0.8-0.1-1-0.1l-2.7,0.4c-0.5,0.1-1.1,0.2-1.6,0.6
		c-0.7,0.5-1.1,1.5-0.9,2.5c0,0.2,0,0.5,0,0.9c0,0.8,0,1.6,0.3,2.2c0.1,0.2,0.2,0.3,0.4,0.3c0.5,0.1,0.9,0.2,1.4,0.2
		c1.2,0,2.4-0.4,3.3-1.2C255,114.5,255.6,112.7,255.4,111.1z"/>
	<path class="st25" d="M282.3,157.1c-0.1-0.1-0.2-0.3-0.3-0.3c-0.1-0.1-0.2-0.1-0.4-0.2c-0.1-0.1-0.3-0.1-0.4-0.2
		c-0.1,0-0.3-0.1-0.4,0c-0.9-0.1-1.8,0-2.9,0.4c-1.3,0.4-2.3,1-3,1.8c-1.3,1.4-1.8,3.5-1.3,5.3c0.5,1.8,2.1,3.3,4,3.8
		c0.1,0,0.1,0,0.2,0c0.2,0,0.4-0.1,0.5-0.3c0.2-0.2,0.2-0.5,0-0.7c-0.3-0.5-0.4-1.2-0.1-1.8c0.2-0.6,0.7-1.1,1.3-1.3
		c0.2-0.1,0.5-0.1,0.8-0.2c0,0,0,0,0,0c-0.6,0.5-1.2,1.1-1.2,2c0,0.4,0,0.9,0.2,1.4c0.4,1,1.2,1.7,2.3,2.1c0.6,0.2,1.1,0.3,1.7,0.3
		c0.8,0,1.6-0.2,2.2-0.5c1.8-0.9,3.1-2.8,3.8-5.4c0.5-2.1,0.6-4.2,0-6c-0.6-2.1-2-3.9-3.8-4.8c-0.4-0.2-0.9-0.4-1.6-0.3
		c-0.4,0.1-0.8,0.3-1,0.7c-0.2,0.3-0.2,0.7-0.1,1c0,0.2,0.2,0.3,0.3,0.4c0,0.1,0.1,0.2,0.2,0.3c1.1,1.1,2,2.2,2.1,3.5
		c0,0.9-0.4,1.8-1.2,2.6c-0.3,0.3-0.7,0.6-1.1,0.9c0.3-0.5,0.5-1.1,0.5-1.7C283.6,158.8,283.1,157.8,282.3,157.1z"/>
	<path class="st25" d="M277.5,146.5c-1.1,0.1-2,0.6-2.9,1.1c-0.4,0.2-0.8,0.4-1.2,0.6c-0.8,0.4-1.7,0.5-2.7,0.7
		c-0.7,0.1-1.4,0.2-2.1,0.4c-4.1,1.2-6.9,5.6-6.4,9.8c0.2,1.4,0.8,2.4,1.8,2.6c0.2,0.1,0.4,0.1,0.6,0.1c0.3,0,0.7-0.1,0.9-0.1
		c1-0.2,2-0.6,3.1-0.9c1-0.3,2-0.7,2.9-0.9c0.2,0,0.4-0.2,0.5-0.5c0.3-1.1,1.3-2.1,2.9-3c0.4-0.2,0.8-0.4,1.3-0.7c1-0.5,2-1,2.9-1.8
		c1.2-1,2.5-2.9,2-4.8C280.8,147.6,279.2,146.5,277.5,146.5z"/>
	<path class="st25" d="M286.9,150.8c1.6,1.3,3.1,2.5,3.9,4.2c0.1,0.2,0.4,0.4,0.6,0.4c0.1,0,0.2,0,0.2,0c0.2,0,0.5-0.1,0.6-0.3
		c1-1.8,2.2-4.2,3.1-6.2l0.6-1.1c0.2-0.5,0.5-1.1,0.5-1.8c0-1-0.7-1.9-1.7-2.4c-0.9-0.4-1.9-0.4-2.6-0.3c-2.4,0.2-4.8,1.2-6.7,2.8
		c-0.4,0.4-0.9,0.8-1,1.5c-0.2,1.1,0.8,1.9,1.1,2.2C286,150.1,286.4,150.5,286.9,150.8z"/>
	<path class="st25" d="M260,172.6c1.3-1,2-2.9,1.9-4.9c-0.1-1.7-0.8-3.4-1.4-4.8l-5.6-13.5c-0.2-0.4-0.6-1.3-1.5-1.5
		c-0.9-0.1-1.5,0.6-1.8,0.8c-3.6,4.1-4.1,9.9-4.2,14.6c-0.1,9,1.7,15.2,5.5,19.6c0.2,0.3,1.1,1.1,2,1.2c0,0,0.1,0,0.1,0
		c0.4,0,0.8-0.1,1.1-0.4c0.6-0.6,0.6-1.5,0.6-1.9c0-0.4,0-0.9-0.1-1.3c-0.1-1.5-0.2-2.9,0.1-4.3c0.3-1.3,1.1-2.9,2.5-3.5
		C259.6,172.8,259.8,172.8,260,172.6z"/>
	<path class="st25" d="M298.9,183.5c-0.2,0.3-0.4,0.7-0.4,1c0,0.1-0.1,0.2-0.1,0.3c-0.1,1.9,1.5,4.6,3,5.6c1,0.7,2.2,1.2,3.3,1.7
		c0.4,0.2,0.7,0.3,1.1,0.5c1.8,0.8,3.4,1.9,4.9,3.1c0.4,0.3,0.7,0.4,1,0.4c0.2,0,0.3,0,0.5-0.1c0.3-0.2,0.5-0.5,0.6-0.6
		c0.7-1.4,1.5-2.9,1.5-4.7c0-1.9-1-3.9-2.8-5.4c-1.5-1.3-3.3-2-5.2-2.8c-1.6-0.6-3.1-1.1-4.7-0.8C300.5,182,299.5,182.7,298.9,183.5
		z"/>
	<path class="st25" d="M308.6,196.3c-0.1-0.2-0.2-0.3-0.3-0.4c-0.6-0.3-1-0.5-1.4-0.6c-0.4-0.2-0.8-0.3-1.4-0.6
		c-0.3-0.2-0.8-0.4-1.4-0.3c-1.1,0.2-1.4,1.5-1.5,1.9c-0.3,1.2-0.6,2.6,0.2,3.7c0.4,0.7,1.1,1,1.7,1.4c1.5,0.8,3.1,1.4,4.6,1.9
		c0.2,0.1,0.7,0.2,1.2,0.2c0.4,0,0.9-0.1,1.3-0.4c1-0.8,0.7-2.2,0.1-3.2C311,198.4,309.9,197.2,308.6,196.3z"/>
	<path class="st25" d="M300.5,201.5c0.1,0.1,0.2,0.1,0.4,0.1c0.1,0,0.3,0,0.4-0.1c0.2-0.2,0.3-0.5,0.2-0.7c-0.3-1.1-0.2-2.3-0.1-3.5
		c0.1-0.8,0.2-1.6,0.1-2.5c-0.2-3.2-2.1-6-3.7-8.3c0-0.3-0.1-0.5-0.4-0.7c-0.3-0.2-0.7-0.1-0.9,0.3c-1.4,2.6-1.7,5.6-1,8.5
		C296.3,197.4,298.1,199.9,300.5,201.5z"/>
	<path class="st25" d="M149.5,179.7c-2.2-0.7-4.7,0.4-5.8,2.3c-0.1,0.3-0.3,0.6-0.3,1.1c0,1.3,1.3,1.9,2.6,2c0,0,0.1,0,0.1,0
		c1.4,0,2.6-0.5,3.4-1.3c0.5-0.6,0.8-1.4,0.7-2.2c0-0.4-0.1-0.7-0.3-1c0,0,0-0.1,0-0.1C150,180.2,149.8,179.8,149.5,179.7z"/>
	<path class="st25" d="M145.2,188c0-0.4-0.1-0.9-0.4-1.2c-0.2-0.2-0.4-0.3-0.6-0.4c-0.1-0.1-0.2-0.1-0.3-0.2c-1.8-0.6-3.9,0.1-5,1.7
		c-0.5,0.8-0.6,1.6-0.1,2.2c0.3,0.4,0.8,0.6,1.2,0.6c0.3,0.1,0.6,0.1,0.9,0.1c1.2,0,2.5-0.5,3.4-1.3
		C144.8,189,145.1,188.5,145.2,188z"/>
	<path class="st25" d="M143.5,197.4c0.1,0,0.2,0,0.3,0c0.6,0,1.1-0.4,1.4-1.1c0.8-1.6,0.8-3.6,0-5.3c-0.2-0.3-0.6-0.5-0.9-0.3
		c0,0-0.1,0-0.1,0.1c-0.9,0.5-1.6,1.4-2,2.5c-0.3,1.1-0.2,2.3,0.4,3.3C142.7,196.8,143,197.3,143.5,197.4z"/>
	<path class="st25" d="M136.2,196.4c0.7-0.4,1.2-1,1.4-1.7c0.3-0.9,0-1.8-0.7-2.3c0,0,0,0-0.1,0c-0.1-0.1-0.1-0.1-0.2-0.2
		c-0.7-0.4-1.5-0.5-2.4-0.2c-1.1,0.3-2.1,1.2-2.7,2.2c-0.1,0.2-0.5,0.9-0.2,1.5c0.2,0.6,0.8,0.8,1,0.9c0.5,0.2,1.1,0.4,1.8,0.4
		C134.8,196.9,135.6,196.7,136.2,196.4z"/>
	<path class="st25" d="M138.6,196.5c-0.2-0.1-0.4-0.1-0.6,0c-1,0.6-1.8,1.7-2,3c-0.2,1.3,0.2,2.6,1,3.4c0.1,0.1,0.3,0.2,0.5,0.2
		c0.1,0,0.3,0,0.4-0.1c0.9-0.6,1.6-1.7,1.8-3c0.2-1.2,0-2.4-0.6-3.2C139,196.6,138.8,196.5,138.6,196.5z"/>
	<path class="st25" d="M132,199.5c0,0-0.1,0-0.2,0c-2.1-0.1-4.2,1.2-5,3.2c-0.3,0.8-0.3,1.5,0.1,2c0.3,0.4,0.8,0.6,1.5,0.6
		c0.1,0,0.1,0,0.2,0c1.7-0.1,3.4-0.9,4.5-2.2c0.6-0.7,0.8-1.4,0.8-2c0-0.5-0.3-1-0.8-1.3C132.8,199.5,132.4,199.4,132,199.5z"/>
	<path class="st25" d="M150.9,168.3c0.9,0,1.8-0.2,2.6-0.7c0.3-0.2,0.4-0.6,0.3-0.9c-0.1-0.2-0.3-0.3-0.5-0.3c0-0.1,0-0.3-0.1-0.4
		c-0.7-1.3-1.6-2.5-2.7-3.6c-1.3-1.3-2.8-1.6-3.9-1c-0.6,0.3-0.9,0.8-1.1,1.5c-0.2,0.9,0,2.1,0.6,2.9
		C147.2,167.4,149.1,168.3,150.9,168.3z"/>
	<path class="st25" d="M140.7,169.9c0-0.2-0.1-0.5-0.3-0.6c-0.2-0.1-0.5-0.1-0.7,0c-0.6,0.4-1.3,0.6-2.1,0.8
		c-0.2,0.1-0.4,0.1-0.7,0.2c-0.9,0.3-2.2,0.7-2.9,1.9c-0.4,0.6-0.5,1.5-0.3,2.3c0.2,0.6,0.6,1.1,1.1,1.4c0.3,0.1,0.6,0.2,0.9,0.2
		c0.4,0,0.9-0.1,1.4-0.3C139.2,174.6,140.6,171.9,140.7,169.9z"/>
	<path class="st25" d="M131.9,167.7C131.9,167.7,131.9,167.7,131.9,167.7c0-0.2-0.1-0.3-0.1-0.4c-0.9-1.7-1.9-2.8-3.2-3.6
		c-1.6-0.9-3.5-1-4.9-0.3c-0.8,0.4-1.2,1-1.4,1.7c-0.2,0.8,0.2,1.7,1.1,2.5c1.3,1.2,3,1.8,4.8,1.8c1.2,0,2.4-0.3,3.5-0.9
		C132,168.4,132.1,168,131.9,167.7z"/>
	<path class="st25" d="M125.7,171.5c-1.3,1-2.1,2.6-2.1,4.2c0,0.9,0.3,1.5,0.8,1.9c0.4,0.3,0.8,0.4,1.2,0.4c0.8,0,1.6-0.5,2.3-1.1
		c1.6-1.5,2.6-3.5,3-5.6c0.1-0.3-0.1-0.6-0.4-0.7C128.8,170,126.8,170.7,125.7,171.5z"/>
	<path class="st25" d="M118.7,170.1c0.3,0,0.7,0,1.2-0.1l0.6-0.1c0.1,0,0.2,0,0.2-0.1c0,0,0.1,0,0.1-0.1c0.3-0.2,0.5-0.6,0.3-0.9
		c-1.3-2.7-4.1-4.6-7.1-4.8c-1.1-0.1-1.9,0.3-2.2,1c-0.1,0.3-0.1,0.7,0,1.2c0.5,1.8,2.4,3.2,5.1,3.6
		C117.9,170,118.3,170.1,118.7,170.1z"/>
	<path class="st25" d="M121.3,171.8c0-0.4-0.4-0.6-0.7-0.6c-0.1,0-0.2,0-0.3,0.1c-1.3-0.2-2.7,0.1-3.9,0.9c-1.3,0.9-2.1,2.3-2.3,3.7
		c0,0.4-0.1,0.9,0.2,1.4c0.4,0.7,1.1,1,1.9,1c0.5,0,1.1-0.1,1.5-0.4C120,177,121.6,174.1,121.3,171.8z"/>
	<path class="st25" d="M104.8,169.5c-0.2,0.1-0.7,0.4-0.8,0.9c-0.1,0.3,0,0.7,0.2,1c0.6,1,1.8,1.5,3.5,1.5c0.4,0,0.8,0,1.3-0.1
		c1-0.2,1.5-0.4,2.2-0.7c0.3-0.1,0.5-0.2,0.9-0.4c0.2,0,0.4,0,0.5-0.2c0.3-0.3,0.3-0.7,0-0.9C110.7,168.6,107.3,168.1,104.8,169.5z"
		/>
	<path class="st25" d="M162.6,179.2c0.2,0.1,0.4,0.1,0.5,0.1c0.9,0,1.7-0.7,2.3-2c0.8-1.7,1.2-3.2,1.2-4.5c0-1.8-0.7-3.5-2-4.4
		c-0.3-0.2-0.7-0.2-0.9,0.1c-0.1,0.1-0.1,0.2-0.1,0.3c-2.5,2.1-3.5,5.9-2.4,9C161.6,178.5,162,179,162.6,179.2z"/>
	<path class="st25" d="M156,170.1c0,0.5,0.2,0.9,0.6,1.2c0.4,0.4,1,0.5,1.7,0.5c0.4,0,0.8-0.1,1.1-0.3c0.5-0.3,1.3-1,1.7-1.6
		c0.6-0.9,1-2.4,1.4-3.6l0.1-0.5c0.1-0.4-0.1-0.7-0.4-0.8c-1.4-2.1-3.4-3.7-5.6-4.7c-0.4-0.2-1.5-0.7-2.4,0
		c-0.6,0.5-0.9,1.3-0.7,2.3c0.3,1.5,1.4,2.9,2.8,3.5c0.5,0.2,1.3,0.4,2.2,0.5c-0.6,0.5-1.2,0.9-1.5,1.2
		C156.4,168.4,155.9,169.3,156,170.1z"/>
	<path class="st25" d="M164.3,158c-1.2-0.5-2.9-0.2-3.6,1.1c-0.6,1.1-0.3,2.5,0.7,4c1.3,1.7,3,3.1,4.9,3.9c0.1,0.1,0.2,0.1,0.4,0.1
		c0.1,0.2,0.3,0.3,0.5,0.3c0,0,0.1,0,0.1,0c0.3,0,0.6-0.2,0.7-0.6c0.4-2.2,0-4.5-1.1-6.4C166.1,159.3,165.3,158.4,164.3,158z"/>
	<path class="st25" d="M169.3,166.7c-0.2,0-0.4,0.1-0.5,0.2c-2,2.4-2.2,6.8-0.5,9.6c0.3,0.5,0.7,1.1,1.5,1.3c0.2,0,0.3,0.1,0.5,0.1
		c0.7,0,1.4-0.4,1.8-1c0.5-0.7,0.6-1.4,0.6-2c0.2-2.9-0.8-5.9-2.9-8C169.7,166.8,169.5,166.7,169.3,166.7z"/>
	<path class="st25" d="M170,126.1c-0.9-0.5-2.1-0.5-2.8,0.2c-0.7,0.6-0.9,1.5-0.8,2.8c0.3,2.4,1.4,4.8,3,6.5
		c0.1,0.2,0.3,0.2,0.5,0.2c0.1,0,0.1,0,0.2,0c0.2,0,0.4-0.1,0.5-0.2c1.8-2,1.9-5.4,0.9-7.6C171.2,127.1,170.7,126.4,170,126.1z"/>
	<path class="st25" d="M155.7,130.9c-0.6,0.8-0.5,2.2,0.4,2.8c0.4,0.3,0.8,0.3,1.2,0.3c0.4,0,0.8-0.1,1.2-0.2
		c1.7-0.5,3.3-1.3,4.8-2.3c0.3-0.2,0.4-0.6,0.2-0.9c-0.1-0.2-0.4-0.3-0.6-0.3c-0.1-0.1-0.1-0.1-0.2-0.2c-1.4-0.7-3.1-0.9-4.6-0.6
		C156.8,129.8,156.1,130.2,155.7,130.9z"/>
	<path class="st25" d="M160.9,129.2c0,0.1,0.1,0.1,0.1,0.2c0.1,0.2,0.3,0.2,0.5,0.2c0.2,0,0.3-0.1,0.4-0.2c2-1.7,2.7-4.7,1.7-7.1
		c-0.3-0.8-0.7-1.3-1.3-1.7c-0.8-0.5-1.8-0.4-2.4,0.1c-0.7,0.6-1.1,1.4-1.2,2.1c-0.2,2,0.5,4.2,2,6.2
		C160.8,129.2,160.9,129.2,160.9,129.2z"/>
	<path class="st25" d="M149.2,124.3c-0.1,0.5,0,1,0.3,1.4c0.3,0.4,0.6,0.6,0.9,0.7c0.8,0.4,1.8,0.6,2.7,0.6c1.2,0,2.4-0.3,3.4-0.9
		c0.2-0.1,0.4-0.4,0.3-0.7c0.1-0.3,0-0.6-0.2-0.8c-0.3-0.2-0.5-0.4-0.8-0.6c-0.9-0.7-1.8-1.4-3.1-1.5c-0.7-0.1-1.7-0.1-2.5,0.4
		C149.7,123.2,149.4,123.7,149.2,124.3z"/>
	<path class="st25" d="M155.1,122.4c0.1,0.1,0.3,0.1,0.4,0.1c0,0,0,0,0,0c0.1,0,0.2,0.1,0.3,0.1c0.3,0,0.5-0.1,0.6-0.4
		c0.5-1.1,0.4-1.9,0.4-2.7c0-0.2,0-0.4,0-0.7c0-1.1-0.4-2.2-1.1-3.4c-0.8-1.3-1.7-1.6-2.3-1.5c-0.8,0.1-1.5,0.7-1.8,1.6
		c-0.2,0.8-0.1,1.6,0.1,2.1C152.1,119.4,153.4,121.2,155.1,122.4z"/>
	<path class="st25" d="M144,115.2c-0.7,0.9-0.2,2.1,0.6,2.9c1.3,1.2,2.3,1.6,3.7,1.6c0.3,0,0.7,0,1.1-0.1c0.2,0,0.4-0.1,0.5-0.3
		c0.1-0.2,0.1-0.4,0.1-0.6c-0.5-1.8-1.8-3.3-3.5-3.9C145.4,114.5,144.5,114.6,144,115.2z"/>
	<path class="st25" d="M146.9,114.9c0.1,0.3,0.4,0.4,0.6,0.4c0.1,0,0.2,0,0.2,0c0.2-0.1,0.3-0.3,0.4-0.5c0,0,0.1-0.1,0.1-0.1
		c1.5-1.4,2.1-3.7,1.7-5.7c-0.2-0.9-0.8-1.7-1.4-2c-0.5-0.3-1-0.3-1.5-0.2c-1.1,0.3-1.6,1.6-1.4,3.2
		C145.9,111.7,146.3,113.3,146.9,114.9z"/>
	<path class="st25" d="M140.5,110.6c1,0.8,1.3,0.9,2,1.2c0.2,0.1,0.5,0.2,1,0.4c0.1,0.3,0.3,0.4,0.6,0.4c0,0,0.1,0,0.1,0
		c0.4-0.1,0.6-0.4,0.5-0.8c-0.3-1.3-0.7-2.5-1.3-3.6c-0.3-0.6-0.8-1.3-1.5-1.7c-0.9-0.5-2-0.3-2.6,0.4c-0.5,0.6-0.5,1.5-0.1,2.3
		C139.5,109.8,140,110.2,140.5,110.6z"/>
	<path class="st25" d="M178.4,124.1c0.2,0.2,0.3,0.4,0.4,0.5c0,0.1,0,0.3-0.1,0.4c0,0.1,0,0.1-0.1,0.2c-0.4,1.7,0.3,3.6,1.9,4.7
		c1.1,0.9,2.4,1.7,4.3,1.8c0,0,0,0,0,0c0.1,0,0.2,0,0.3-0.1c2.3-1,4.9-2.2,7.1-4c2.4-2,3.9-4.4,4.4-7c0.5-2.7-0.1-5.8-1.7-8.5
		c-1.3-2.1-3.2-4.1-5.9-6.3c-0.2-0.1-0.6-0.5-1.1-0.3c-0.3,0.1-0.5,0.3-0.6,0.4l-6.9,8.2c-0.7,0.8-1.6,1.9-1.7,3.2
		c0,0.3,0,0.6,0,0.8c0,0.3,0,0.7-0.1,0.9c-0.1,0.2-0.2,0.4-0.4,0.6c-0.1,0.2-0.3,0.4-0.4,0.7c-0.5,1-0.4,2.3,0.3,3.2
		C178.2,123.9,178.3,124,178.4,124.1z"/>
	<path class="st25" d="M165.1,121.2c1.5,1,3.1,1.6,4.7,2.1c0.8,0.3,1.4,0.4,2,0.6c0.6,0.1,1.1,0.3,1.8,0.5c0.1,0,0.2,0,0.3,0
		c0.1,0,0.1,0,0.2,0c0.2,0,0.4-0.1,0.6-0.3c1.6-2.4,0.9-6-1.4-7.7c0,0-0.1-0.1-0.1-0.1c0-0.1,0.1-0.2,0.1-0.3l0,0
		c0.6-1.2,0.6-2.6,0.1-3.9c-0.5-1.3-1.5-2.3-2.7-2.8l0,0c0,0-0.1,0-0.1,0c0-0.1,0-0.2,0-0.3l0-0.1c-0.1-2-1.6-3.8-3.5-4.3
		c-0.3-0.1-0.6,0-0.8,0.3c-1.2,2.1-2.5,4.2-3.5,6.5c-0.6,1.5-1.3,3.4-0.8,5.4C162.2,118.5,163.3,120,165.1,121.2z"/>
	<path class="st25" d="M158.6,145.9c-1.8-0.7-4.3-0.2-5.4,1.4c-1.3-0.8-3-0.9-4.3-0.2c-0.5,0.2-0.9,0.5-1.3,0.8
		c-0.2,0.2-0.4,0.3-0.7,0.4c-0.6,0.3-1.2,0.6-1.8,0.8l-6.9,2.7c-0.2,0.1-0.4,0.3-0.4,0.5c0,0.2,0,0.4,0.2,0.6
		c2.5,2.6,6.2,4.2,10.7,4.9c1.1,0.2,2.2,0.2,3.2,0.2c1.9,0,3.7-0.3,5.3-0.9c3-1.1,5.2-3.4,5.9-6.2c0,0,0,0,0-0.1
		c0.2-0.2,0.2-0.5,0-0.7C162.2,148.7,160.8,146.7,158.6,145.9z"/>
	<path class="st25" d="M160.6,201.1c0.1,0.1,0.3,0.2,0.5,0.2c0.3,0,0.6,0,0.9,0c4.2,0,8.3-2,10.8-5.3c2.7-3.6,3.5-8.4,2-12.7
		c-0.1-0.3-0.4-0.5-0.7-0.4c0,0-0.1-0.1-0.1-0.1c-1.7-1-4-0.9-5.6,0.2c-1.5,1-2.4,2.7-2.4,4.5c-1.2,0.4-2.3,1.2-3,2.2
		c-0.7,0.9-1,2-1.3,2.9c-0.8,2.7-1,5.5-1.2,8.1C160.4,200.8,160.5,201,160.6,201.1z"/>
	<path class="st25" d="M118.3,185.8c-0.3,0-0.8,0.1-1.1,0.7c-0.1,0.3-0.3,0.8,0.3,1.5c1.7,2,4.4,3.1,7.1,3.1c1.1,0,2.2-0.2,3.2-0.6
		c3.4-1.2,6.1-4.5,6.8-8.2c0,0,0,0,0,0c0.1-0.2,0.1-0.4,0-0.6c-0.8-1.6-2.8-2.5-4.5-2c-1.5,0.4-2.7,1.6-3,3c-0.8-0.1-1.8,0-2.7,0.4
		c-0.6,0.3-1.2,0.6-1.7,1c-0.3,0.2-0.7,0.4-1,0.6C120.6,185.2,119.5,185.6,118.3,185.8z"/>
	<path class="st25" d="M269.5,116.7c-0.2,0.1-0.5,0.1-0.8,0.1c-0.3,0-0.6,0.1-0.9,0.2c-1.7,0.5-2.5,2.2-2.8,3.9
		c-0.5-0.2-1.1-0.2-1.7,0c-1,0.3-1.6,1.2-1.9,1.8c-0.9,1.6-0.9,3.6-0.1,5.3c0.1,0.2,0.3,0.3,0.5,0.4c0,0,0.1,0.1,0.1,0.1
		c1.8,1.4,4,1.8,5.9,1.8c0.5,0,1,0,1.5-0.1c4.7-0.5,10.4-3.4,11.6-8.8c1.1-4.5-1.2-9-3.8-13.1c-0.1-0.2-0.3-0.3-0.5-0.3
		c-0.2,0-0.4,0.1-0.6,0.3l-5.1,7.2C270.4,116,270,116.5,269.5,116.7z"/>
	<path class="st25" d="M262.9,104.9c-1.5,2.8-1.7,7.6,0.2,10.3c0.1,0.2,0.3,0.3,0.5,0.3c0,0,0,0,0,0c4.5-0.1,7.8-4,8.9-7.5
		c1.3-3.9,0.8-8.1,0.2-11.8c0-0.2-0.2-0.4-0.4-0.5c-0.2-0.1-0.5,0-0.7,0.1L269,98C266.8,99.9,264.3,102.1,262.9,104.9z"/>
	<path class="st25" d="M301.6,166.4C301.5,166.5,301.5,166.5,301.6,166.4c-0.1,0.1-0.1,0.2-0.1,0.3c0,1.7,0.4,3.5,1.2,5
		c0.3,0.5,0.6,1.1,1.2,1.5c0.3,0.2,0.6,0.3,1,0.3c0.3,0,0.7-0.1,1-0.2c0.8-0.3,1.3-1,1.5-1.8c0.3-1.2-0.3-2.6-1.5-3.5
		c-1.4-1.1-2.5-1.7-3.5-2C302,165.9,301.7,166.1,301.6,166.4z"/>
	<path class="st25" d="M308.1,159.6c-1.4,0.2-2.6,1.1-3.6,1.9c-0.8,0.7-1.6,1.5-2.4,2.3c-0.1,0.1-0.2,0.3-0.2,0.5
		c0,0.2,0.1,0.4,0.3,0.5c1.2,0.8,3.3,1.5,5.1,1.5c1,0,1.9-0.2,2.6-0.7c1.2-0.8,2.3-2.4,1.8-4C311.4,160.1,309.6,159.4,308.1,159.6z"
		/>
	<path class="st25" d="M311.6,175.4c0.5,0.4,1.2,0.7,1.9,0.7c0.2,0,0.3,0,0.5-0.1c0.5-0.1,0.9-0.4,1.1-0.9c0.2-0.4,0.3-1-0.2-1.9
		c-1-2-3.3-4-5.4-4.8c-0.3-0.1-0.7,0-0.9,0.4c-0.1,0.1-0.1,0.3,0,0.4c0,0,0,0,0,0C308.6,171.6,309.8,173.9,311.6,175.4z"/>
	<path class="st25" d="M316.8,170.3c0.9,0,1.7-0.2,2.5-0.7c0.2-0.1,0.6-0.4,0.8-0.8c0.2-0.4,0.3-0.9,0.1-1.4
		c-0.3-0.8-1.2-1.4-1.9-1.6c-2.4-0.7-5.2-0.1-7.1,1.6c-0.2,0.2-0.3,0.4-0.2,0.7c0.1,0.2,0.3,0.4,0.5,0.5c0.6,0.1,1.5,0.5,2.3,0.8
		c0.6,0.3,1.2,0.5,1.6,0.6C315.9,170.2,316.4,170.3,316.8,170.3z"/>
	<path class="st25" d="M322.6,173.9l-4-1.4c-0.2-0.1-0.5,0-0.7,0.2c-0.2,0.2-0.2,0.5-0.1,0.7c0.1,0.3,0.2,0.6,0.3,0.9
		c0.5,1.3,0.9,2.4,2,3.7c1.2,1.3,2.4,1.9,3.6,1.9c0.3,0,0.6,0,0.9-0.1c0.5-0.2,0.9-0.4,1.2-0.8c0.5-0.6,0.6-1.6,0.3-2.5
		C325.5,175,323.9,174.4,322.6,173.9z"/>
	<path class="st25" d="M276.1,191.7c0-0.1,0-0.3-0.1-0.4c-0.2-0.3-0.6-0.5-0.9-0.3c-2.3,1.1-4.2,3-5.2,5.3c-0.6,1.4-0.6,2.7,0.2,3.5
		c0.1,0.1,0.2,0.2,0.4,0.3c1,0.6,2.4,0.2,3.4-0.5c2.3-1.7,3.2-4.9,2.3-7.6C276.2,191.8,276.1,191.7,276.1,191.7z"/>
	<path class="st25" d="M276.5,199.3c-0.1,0-0.1,0.1-0.2,0.2c-1.4,1-2.7,2.2-3.7,3.7c-1.2,1.7-1.4,3.3-0.8,4.6
		c0.2,0.4,0.4,0.7,0.7,0.8c0,0,0.1,0,0.1,0.1c0.5,0.3,1.1,0.2,1.9-0.1c1.7-0.7,3-2.1,3.5-3.9c0.6-1.7,0.4-3.7-0.6-5.2
		C277.3,199.3,276.9,199.2,276.5,199.3z"/>
	<path class="st25" d="M289.9,201.1c0.4,0.2,0.7,0.3,1.1,0.2c0,0,0.1,0,0.1,0c0.6-0.1,1.1-0.5,1.5-1.2c0.9-1.6,1.1-3.5,0.5-5.2
		c-0.6-1.7-1.9-3.1-3.5-3.8c-0.3-0.1-0.7,0-0.9,0.4c0,0.1-0.1,0.2-0.1,0.3c-0.6,1.6-0.8,3.4-0.8,5.1
		C287.9,199,288.6,200.5,289.9,201.1z"/>
	<path class="st25" d="M277.5,207.6c-0.2,0.1-0.3,0.2-0.4,0.4c0,0,0,0-0.1,0.1c-1.8,2.6-2.9,5.7-3,8.9c0,0.6,0,1.3,0.4,1.8
		c0.1,0.2,0.3,0.4,0.5,0.5c0.2,0.1,0.5,0.2,0.8,0.3c0.6,0.1,1.3-0.1,1.8-0.5c0.7-0.5,1.1-1.4,1.3-2.6c0.3-1.9,0.5-6.1-0.6-8.5
		C278.2,207.6,277.8,207.4,277.5,207.6z"/>
	<path class="st25" d="M220.6,127.3c0.8,0.5,1.7,0.7,2.6,0.7c1,0,2-0.3,3.1-0.8c0.3-0.2,0.5-0.6,0.3-0.9c-0.1-0.1-0.1-0.2-0.2-0.3
		c-0.8-2.5-2.6-4.7-4.9-6c-0.5-0.3-1.3-0.7-2.1-0.7c-0.9,0-1.8,0.5-2.1,1.3c-0.2,0.5-0.2,1-0.1,1.3
		C217.3,124.2,218.7,126.2,220.6,127.3z"/>
	<path class="st25" d="M227.7,115.7c-2,2.4-2.4,6.1-0.9,8.8c0.1,0.2,0.3,0.3,0.5,0.3c0.1,0.1,0.2,0.1,0.3,0.1c0.1,0,0.2,0,0.4-0.1
		c1.2-0.7,1.6-1.6,2-2.5c0.2-0.3,0.3-0.7,0.6-1.1c1-1.7,1.2-3.7,0.5-5.3c-0.3-0.6-0.7-1.1-1.2-1.2
		C229.1,114.6,228.4,114.9,227.7,115.7z"/>
	<path class="st25" d="M222.2,117.5c0.1,0,0.1,0,0.2,0c0.1,0,0.2,0,0.3-0.1c0.2-0.1,0.3-0.2,0.3-0.4c0.7-3-1.3-6.4-4.3-7.2
		c-1-0.3-2.2-0.2-2.9,0.7c-0.6,0.8-0.4,2,0.4,3.1C217.9,116,219.6,116.8,222.2,117.5z"/>
	<path class="st25" d="M223.3,108.9c-0.1,0.8,0,1.6,0,2.3c0.1,0.9,0.1,1.7,0,2.5c0,0.1,0,0.2,0.1,0.3c0,0.2,0,0.3,0,0.5
		c0.1,0.2,0.4,0.4,0.6,0.4c0.1,0,0.2,0,0.3-0.1c1.1-0.6,2-1.9,2.8-3.1c0.3-0.4,0.5-0.8,0.7-1.1c1.1-1.5,1.4-3.3,0.9-4.8
		c-0.2-0.7-0.7-1.2-1.2-1.4c-0.4-0.1-0.9-0.1-1.4,0C224.2,105.1,223.4,107.2,223.3,108.9z"/>
	<path class="st25" d="M217.5,106.3c0.6,0.4,1.1,0.7,1.5,1c0.1,0.1,0.3,0.1,0.4,0.1c0.1,0,0.1,0,0.2,0c0.2,0,0.4-0.2,0.4-0.4
		c0.6-1.2,0.6-2.7,0-4.1c-0.5-1.4-1.6-2.4-2.8-2.9c-0.8-0.3-1.8-0.3-2.5,0c-0.5,0.2-0.9,0.6-1.1,1.1c-0.4,1,0,2.1,1.2,3.2
		C215.5,105.2,216.5,105.8,217.5,106.3z"/>
	<path class="st25" d="M222,104.8C222,104.8,222.1,104.8,222,104.8c0.2,0,0.3,0,0.4,0c0.2,0,0.4-0.1,0.5-0.3
		c0.8-1.1,1.1-1.8,1.4-2.5c0.2-0.4,0.3-0.7,0.5-1.2c0.9-1.6,1-3.4,0.4-4.9c-0.3-0.6-0.6-0.9-1.1-1.1c-0.6-0.2-1.4,0-2,0.5
		c-1.1,1-1.8,2.6-1.8,4.4c0,1.6,0.4,3,0.8,4.5C221.3,104.7,221.7,104.9,222,104.8z"/>
	<path class="st25" d="M217.5,98.1c0,0.2,0.2,0.4,0.4,0.4c0.1,0,0.2,0.1,0.3,0.1c0.2,0,0.5-0.1,0.6-0.4c1.4-2.8,1.3-6.4-0.1-9.2
		c-0.6-1.2-1.7-2.3-3.1-2.1c-0.8,0.2-1.6,0.9-1.8,1.8c-0.2,0.8-0.1,1.6,0,2.3C214.3,94.3,215.5,96,217.5,98.1z"/>
	<path class="st25" d="M252.1,107.1c0.1,0,0.3,0,0.4-0.1c0.1-0.1,0.2-0.2,0.3-0.4c1.6-2,1.2-4.2,0.6-6.4c-0.5-1.5-1.4-2.7-2.6-3.3
		c-0.5-0.2-0.9-0.3-1.3-0.1c-0.7,0.2-1.2,0.9-1.2,1.9c-0.2,3,1.5,5.5,3.4,8.1C251.7,107,251.9,107.1,252.1,107.1z"/>
	<path class="st25" d="M261.9,102.5c0.2-0.4,0.5-0.9,0.3-1.5c-0.2-0.8-1.1-1.2-2.3-1c-2.6,0.5-5.5,3.5-6.5,6c-0.1,0.2,0,0.4,0.1,0.6
		c0.1,0.2,0.3,0.3,0.6,0.3C257.2,106.9,260.3,105.2,261.9,102.5z"/>
	<path class="st25" d="M255.5,100.8c0.1,0,0.2,0,0.2,0c0.1,0,0.3-0.1,0.4-0.2c1.8-1.8,2.4-5.9,1.1-8.3c-0.2-0.3-0.4-0.8-1-1
		c-0.4-0.2-0.8-0.2-1.2,0c-0.7,0.3-1.2,1.1-1.4,1.7c-0.9,2.6-0.4,5.5,1.3,7.6C255.1,100.7,255.3,100.8,255.5,100.8z"/>
	<path class="st25" d="M259.5,97.1c0.1,0,0.2,0,0.3,0c0.6,0.2,1.1,0.2,1.6,0.2c1.5,0,2.7-0.6,4.1-1.6c0.4-0.3,1-0.7,1.2-1.4
		c0.3-1.2-0.8-2.1-1.9-2.4c-1.3-0.3-2.7,0.1-3.8,1c-0.9,0.8-1.6,1.9-2,3.3C258.9,96.6,259.1,97,259.5,97.1z"/>
	<path class="st25" d="M260.2,91.6c0.1,0.2,0.3,0.3,0.6,0.3c0.1,0,0.1,0,0.2,0c1.3-0.4,2.4-1.4,3.2-2.9c1-1.8,1.3-3.9,0.8-5.5
		c-0.3-1-0.9-1.6-1.7-1.6c-0.4,0-0.8,0.2-1,0.4c-2.9,1.9-3.3,6-2.4,8.9C260,91.4,260.1,91.6,260.2,91.6z"/>
	<path class="st25" d="M247.9,152.9c0.3-0.9,0.6-1.8,0.6-2.8c0-1.3-0.6-2.5-1.5-3c-0.3-0.6-0.5-1-0.7-1.3c-0.2-0.4-0.5-0.8-0.9-1.5
		c-0.2-0.3-0.5-0.9-1-1.1c-0.8-0.3-1.7-0.1-2.5,0.8c-2.1,2.1-3.3,5.2-3.7,9.5c-0.9,9.7,2,19.7,8,27.4c0.1,0.2,0.3,0.3,0.5,0.3
		c0.1,0,0.2,0,0.3-0.1c0.3-0.1,0.4-0.4,0.4-0.7c-1.2-8.6-2.5-18.3,0.5-27L247.9,152.9z"/>
	<path class="st25" d="M265.6,189.7c-0.1,0-0.1-0.1-0.2-0.1c-5.8-1.1-11.3-3.6-16-7.2c-0.2-0.2-0.5-0.2-0.7-0.1
		c-0.2,0.1-0.4,0.3-0.4,0.6c-0.4,4.9,1.4,9.8,3,14c0.3,0.9,0.8,2.1,1.8,2.8c0.6,0.4,1.2,0.5,1.8,0.5c1,0,2-0.3,2.8-0.7
		c2.2-0.9,4.3-2,6.4-3.2c1.1-0.6,2.3-1.4,2.9-2.7C267.8,192.2,266.9,190.4,265.6,189.7z"/>
	<path class="st25" d="M233.7,187.8c-2.3,1-3.3,3.7-3.5,5.9c-0.1,0.9-0.1,1.9-0.1,2.8c0,1.5,0,2.9-0.4,4.2c-0.1,0.2,0,0.4,0.1,0.6
		c0.1,0.2,0.3,0.3,0.5,0.3c0,0,0,0,0,0c4,0,9.5-0.8,12.9-4.6c3.6-3.9,3.8-10.2,0.6-14.4c-0.1-0.1-0.2-0.2-0.3-0.2
		c-0.1-0.2-0.2-0.3-0.4-0.3c-2.6-0.9-5.6-0.4-7.7,1.4C234.2,184.4,233.2,186.2,233.7,187.8z"/>
	<path class="st25" d="M240.5,206.6c-0.2,0.1-0.4,0.3-0.6,0.4c-0.9,0.8-1.3,2.1-1.1,3.4c0.2,1.1,0.7,2.1,1.3,3
		c1.6,2.5,3.5,4.7,5.8,6.5c0.1,0.1,0.3,0.1,0.4,0.1c0.1,0,0.2,0,0.2,0c0.2-0.1,0.4-0.3,0.4-0.5c0.3-1.4,1.3-2.4,2.4-3.6
		c0.6-0.6,1.1-1.2,1.6-1.8c1.8-2.4,2.3-5.7,1.4-8.6c-1-2.9-3.4-5.2-6.3-6c-0.2-0.2-0.4-0.3-0.7-0.2c-2.4,0.7-4.1,3.1-4.1,5.6l0,0.2
		c0,0.3,0,0.5-0.1,0.7C241.1,206.2,240.9,206.4,240.5,206.6z"/>
	<path class="st25" d="M221.5,201.6c0.2,0.1,0.6,0.4,1.2,0.4c0.1,0,0.2,0,0.3,0c0.4-0.1,0.7-0.3,1.1-0.7c1.2-1.6,0.9-3.7,0.3-5.1
		c-0.6-1.3-1.5-2.3-2.4-3.2c0-0.1-0.1-0.2-0.2-0.2c-2.4-2.3-6.3-2.8-9.2-1c-0.4,0.2-0.8,0.5-1,1c-0.3,0.8,0,1.8,0.8,2.3
		c0.6,0.4,1.3,0.4,1.8,0.4c0.1,0,0.2,0,0.2,0c2.1-0.1,4.2-0.9,5.8-2.3c0,0,0.1,0.1,0.1,0.1c0,0,0,0,0,0c0.1,0.1,0.2,0.2,0.2,0.2
		c-1,1.1-1.4,2.6-1.3,4.2C219.5,199.3,220.3,200.7,221.5,201.6z"/>
	<path class="st25" d="M214.6,204.9c0.3,1,0.8,1.7,1.4,2.1c0.4,0.2,0.8,0.4,1.3,0.4c0.6,0,1.1-0.2,1.5-0.6c0.4-0.5,0.6-1.1,0.5-1.9
		c-0.1-1.2-1-5-2.3-6.1c0,0,0,0,0,0c0-0.1,0-0.2-0.1-0.3c-0.8-1.2-2.4-2-4.3-2.1c-2.1-0.1-4.1,0.6-5.2,1.9c-0.4,0.5-0.6,1-0.6,1.4
		c-0.1,1.2,1,1.9,1.9,2.3c0.7,0.2,1.3,0.3,2,0.3c1.5,0,3-0.5,4.1-1.5C214.3,202.1,214.2,203.5,214.6,204.9z"/>
	<path class="st25" d="M202,207.5c0.3,0.6,0.9,1,1.8,1.2c0.5,0.1,1,0.2,1.6,0.2c1.4,0,2.7-0.4,3.9-1c-0.1,0.8,0,1.5,0,2
		c0.1,0.8,0.2,2.6,1.5,3.3c0.3,0.2,0.7,0.3,1,0.3c0.4,0,0.9-0.1,1.3-0.4c1-0.6,1.6-1.7,1.5-2.8c-0.1-1.8-2-4.3-3-5.4
		c-0.2-0.2-0.5-0.3-0.8-0.2c0,0-0.1,0-0.1,0c0,0,0-0.1-0.1-0.1c-2.2-1.7-5.5-1.7-7.7,0C202.3,205.3,201.5,206.4,202,207.5z"/>
	<path class="st25" d="M199.6,219.4c0,0.6,0.2,1.1,0.6,1.5c0.3,0.3,0.7,0.5,1.2,0.5c0,0,0.1,0,0.1,0c1-0.1,1.8-0.8,2.3-1.4
		c0.9-1.3,1.8-3.4,2.1-5.2c0.3,1,1,2,1.8,2.7c0.2,0.2,0.5,0.2,0.7,0.1c1.2-0.7,1.7-2.4,1.5-3.7c-0.2-1.2-0.9-2.4-1.8-2.9
		c-0.3-0.2-0.6-0.3-0.8-0.4c-0.1-0.1-0.2-0.2-0.3-0.3c-0.1-0.1-0.3-0.1-0.4-0.1c-0.1-0.1-0.2-0.2-0.3-0.2c-1.2-0.6-2.7-0.6-4.1,0
		c-1.4,0.6-2.4,1.6-2.9,2.9c-0.1,0.2-0.1,0.4,0,0.5c0.1,0.2,0.2,0.3,0.4,0.3c0.7,0.2,1.3,0.3,2,0.3c0.3,0,0.6,0,0.9-0.1
		c-0.1,0.1-0.2,0.2-0.3,0.3C200.5,215.8,199.5,217.6,199.6,219.4z"/>
	<path class="st25" d="M201.7,192.7c-0.8,1-1.3,2.3-1.5,3.6c-0.2,1.1,0.2,2,0.9,2.3c0.2,0.1,0.4,0.1,0.6,0.1c0.6,0,1.2-0.3,1.8-1
		c1.3-1.5,2.5-5.1,2.1-7.2c-0.1-0.4-0.4-0.6-0.8-0.5c0,0,0,0-0.1,0c-2.4-0.7-4.8-1-7.3-0.9c-1.6,0.1-2.2,0.7-2.4,1.3
		c-0.2,0.5-0.1,1,0.2,1.4c0.5,0.7,1.6,1.1,2.4,1.2C199.1,193.1,200.4,193,201.7,192.7z"/>
	<path class="st25" d="M194.2,202.2c0.4,0.6,0.9,0.8,1.3,0.8c0,0,0.1,0,0.1,0c0.4,0,0.9-0.2,1.3-1.1c0.7-1.6,0.7-4.5,0-6.1
		c-0.1-0.1-0.1-0.2-0.2-0.3c0-0.2-0.1-0.4-0.3-0.5c-1.8-1-4.9-0.9-6.3,0.9c-0.6,0.7-0.6,1.3-0.4,1.7c0.2,0.7,1,1.1,2.1,1.1
		c0.7,0,1.3-0.2,1.9-0.4C193.2,199.6,193.4,201.1,194.2,202.2z"/>
	<path class="st25" d="M183.9,203.9c-0.2,0.3-0.5,0.7-0.5,1.2c0,0.5,0.2,0.9,0.6,1.2c0.4,0.3,1,0.4,1.5,0.4c0.3,0,0.6,0,0.9-0.1
		c1.8-0.5,3.6-2.1,4.3-3.7c0.5-1,0.5-2,0.1-2.9c-0.1-0.3-0.4-0.5-0.7-0.4c-0.1,0-0.2,0-0.4,0C187.5,200.4,185.4,201.9,183.9,203.9z"
		/>
	<path class="st25" d="M228.2,213.2c0.8-0.9,1.3-2,1.7-3.1c0.1,0.2,0.2,0.3,0.3,0.5c0.8,1.1,2.3,2.1,3.9,1.8c0.1,0,0.6-0.1,0.8-0.5
		c0.4-0.5,0.2-1.1,0.1-1.3c-0.6-2.2-2.4-4.1-4.6-4.8c0,0-0.1-0.1-0.1-0.1c-0.2-0.3-0.7-0.3-0.9-0.1c-1.8,1.5-3.3,3.5-4.3,5.7
		c-0.5,1.2-0.4,2.2,0.3,2.7c0.3,0.2,0.6,0.3,0.9,0.3C227,214.3,227.8,213.8,228.2,213.2z"/>
	<path class="st25" d="M235,220c0.8-0.3,1.1-1.3,1-2.1c-0.2-0.7-0.6-1.2-1-1.6c-1.3-1.2-2.8-2.2-4.5-2.7c0,0,0-0.1,0-0.1
		c-0.2-0.3-0.6-0.4-0.9-0.2c-1.9,1.1-3.2,3.1-3.5,5.2c-0.2,1.1,0.2,1.9,0.9,2.3c0.2,0.1,0.5,0.2,0.8,0.2c0.3,0,0.6-0.1,1-0.2
		c1.1-0.5,1.7-1.6,1.9-2.7c0.9,1.1,2.1,1.8,3.5,2C234.3,220.2,234.6,220.2,235,220z"/>
	<path class="st25" d="M231.7,221.9c0-0.2-0.1-0.3-0.3-0.4c-0.3-0.2-0.7-0.1-0.9,0.2c-1.3,2.1-1.2,4.9,0.2,7
		c0.2,0.3,0.5,0.8,1.1,0.9c0.2,0.1,0.3,0.1,0.5,0.1c0.8,0,1.5-0.6,1.7-1.3c0.3-0.7,0.1-1.5-0.1-2.1
		C233.3,224.5,232.8,223.3,231.7,221.9z"/>
	<path class="st25" d="M271.3,134.2c0.1,0.3,0.4,0.5,0.6,0.5c0.1,0,0.1,0,0.2,0c5-1.4,9.5-4.4,12.8-8.5c4.3-2.1,8.8-3.8,13.4-5
		c0.1,0.1,0.2,0.1,0.3,0.2c0.4,0.1,0.8,0.2,1.2,0.2c0.8,0,1.6-0.2,2.3-0.7c1.1-0.7,1.8-1.8,1.9-2.9c0.1-0.9-0.2-1.9-0.8-2.6
		c-0.5-0.6-1.1-0.9-1.8-0.9c-1.5-0.1-2.7,1.2-3,2.4c-0.3,1-0.2,2,0,3c-1,0.3-2,0.5-3,0.8c0.4-2,0.6-4,0.8-5.9c0.2-2,0.4-4.2,0.9-6.2
		c0-0.1,0-0.1,0-0.2c2.3-1.3,3.6-4.3,2.9-6.8c-0.2-0.9-0.7-1.5-1.3-1.7c-1.3-0.6-2.6,0.4-3.2,1.7c-1.1,2.2-1,5,0.1,7.1
		c0,0,0,0,0.1,0.1c-0.4,2-0.6,4-0.8,5.9c-0.2,2-0.4,4.2-0.9,6.2c0,0.1,0,0.2,0,0.3c-2.5,0.8-5,1.8-7.4,2.9
		c2.7-4.7,2.8-10.3,2.6-14.4c1.9-2,2.5-5.2,1.5-7.8c-0.5-1.2-1.6-2.3-2.9-2c-0.5,0.1-1,0.5-1.4,1.1c-0.9,1.3-1.3,3.1-0.9,4.9
		c0.3,1.6,1.2,3,2.4,3.9c0.2,4.3,0.1,10.3-3.2,14.8c-3.1,4.3-7.6,7.4-12.7,8.8C271.4,133.5,271.2,133.8,271.3,134.2z"/>
	<path class="st25" d="M153.8,211.2c-0.5,0.3-1.2,0.9-1.3,1.7c-0.1,0.6,0.1,1.1,0.6,1.5c0.5,0.4,1.3,0.7,2,0.7c0.2,0,0.5,0,0.7-0.1
		c2.2-0.5,5.6-2.3,6.1-4.8c0,0,0,0,0,0c5.2-3.7,10.4-7.8,14.6-13.1c-0.8,2.8-1.2,5.7-1.2,8.7c-2.4,2.7-4.5,5.8-6.1,9c0,0,0,0-0.1,0
		c-2.4,0.5-4.3,2.5-4.8,4.9c-0.1,0.5-0.1,1.2,0.3,1.8c0.2,0.3,0.5,0.5,0.9,0.6c0.1,0,0.1,0,0.2,0c0.5,0,0.9-0.2,1.1-0.4
		c1.9-1.4,3.8-3.9,3.5-6.2c0,0,0,0,0,0c1.4-2.7,3-5.3,5-7.6c0.1,2.2,0.4,4.4,0.9,6.6c0,0.1,0.1,0.2,0.1,0.2
		c-0.9,1.2-1.3,2.8-1.1,4.4c0.2,1.6,1.1,3.1,2.3,3.9c0.5,0.4,1,0.5,1.5,0.5c0.4,0,0.7-0.1,1-0.3c0.3-0.3,0.7-0.8,0.7-1.8
		c-0.1-2.5-1.2-5.1-3.1-7c0,0,0,0-0.1,0c0-0.1,0-0.2,0-0.3c-1.7-7-1-14.5,1.9-21.1c0-0.1,0.1-0.2,0.1-0.3c0.5-0.8,0.9-1.6,1.3-2.5
		c0.2-0.3,0-0.7-0.3-0.9c-0.1-0.1-0.3-0.1-0.4,0c-0.2,0-0.5,0.1-0.6,0.3c-0.3,0.5-0.6,1.3-1,2.1c-0.1,0.1-0.1,0.3-0.2,0.4
		c-4.3,7.5-11,12.7-17.6,17.4C158.4,209.2,155.9,209.8,153.8,211.2z"/>
	<path class="st25" d="M139.3,204.6c-0.3-0.2-0.7-0.1-0.9,0.3c-1.4,2.5-3.2,4.7-5.3,6.6c-0.1,0.1-0.3,0.2-0.3,0.3
		c-1.7,1.4-3.6,2.7-5.7,3.6c-0.4,0.2-0.7,0.3-1,0.3c-0.3,0-0.5-0.1-0.8-0.3l-0.2-0.1c-2.7-1.1-5.6-0.9-7.4,0.6
		c-0.6,0.5-0.9,1.1-1,1.6c-0.1,1.2,1,2,2,2.3c0.5,0.1,0.9,0.2,1.4,0.2c2.1,0,4.2-1.3,5.9-2.5c0.2-0.1,0.3-0.3,0.3-0.6
		c0.5,0,1-0.2,1.4-0.4c1.7-0.8,3.3-1.8,4.8-2.9c-0.3,3-0.4,6.6-0.1,9.2c-1.5,0.2-2.7,1.4-3.5,3.5c-0.8,2.4-0.7,4.3,0.4,5.6
		c0.5,0.6,1.2,0.9,1.9,0.9c0.1,0,0.3,0,0.4,0c0.4-0.1,0.9-0.3,1.3-0.8c2.4-2.4,2-6.2,0.8-8.8c-0.4-2.8-0.2-7.5,0.2-10.9
		c2.3-2,4.2-4.3,5.6-7C139.8,205.2,139.7,204.8,139.3,204.6z"/>
	<path class="st25" d="M317.2,211c-1.5-1.3-3.7-1.4-5.2-1.2c-0.2,0-0.3,0.1-0.4,0.2c-4.1,1.1-9.8-0.3-13.4-3.4
		c-0.1-0.1-0.2-0.1-0.2-0.1c-0.4-0.4-0.7-0.9-1.1-1.3c-0.2-0.3-0.7-0.3-0.9-0.1c-0.3,0.2-0.3,0.7-0.1,0.9c0.7,0.9,1.4,1.8,2.1,2.6
		c1.4,1.8,2.8,3.5,4.4,5.1c-0.7,0.4-1,1.2-1.4,1.9c-0.6,1.3-0.6,2.7-0.6,3.9c0,1.5,0.6,3.4,2.3,3.4c0,0,0,0,0.1,0
		c0.8,0,1.5-0.5,2.1-1.3c1.7-2.4,1.4-6-0.7-8.1c0,0,0,0,0,0c0,0,0,0,0,0c-1.3-1.2-2.4-2.4-3.5-3.7c3.3,1.7,7.3,2.3,10.5,1.7
		c-0.2,1.4,0.2,2.9,1.2,4c0.8,0.9,2,1.5,3.2,1.5c0.7,0,1.4-0.2,1.9-0.7c0.7-0.6,1-1.4,1-2.3C318.6,212.8,318,211.7,317.2,211z"/>
	<path class="st25" d="M190.7,102.9c0.7,0.3,1.5,0.4,2.2,0.4c1,0,1.9-0.2,2.7-0.4c5.6,5.7,10.6,12,14.8,18.8
		c0.1,0.2,0.3,0.3,0.6,0.3c0.1,0,0.2,0,0.3-0.1c0.3-0.2,0.4-0.6,0.2-0.9c-1.3-2.2-2.8-4.3-4.3-6.4c0.1-0.1,0.1-0.2,0.1-0.4
		c-0.3-3.6-0.5-7.2-0.5-10.9c0-0.1,0-0.2,0-0.3c-0.1-2.5-0.1-5,0-7.5c0,0,0-0.1,0-0.1c0.9-2.3,1.1-4.9,0.5-7.3
		c-0.3-1.2-1-1.8-1.8-1.9c-0.5,0-1.1,0.2-1.7,1.1c-1,1.7-1.3,3.9-0.8,5.8c0.4,1.3,1.2,2.4,2.3,2.9c0,0.1,0.1,0.1,0.1,0.2
		c0,1.8,0,3.5,0,5.3l-8.8-8c1.2-3.2,0.9-5.9-0.9-8.1c-0.3-0.4-1.7-1.4-2.7-1.3c-0.6,0.1-1.2,0.2-1.7,0.7c-0.9,0.9-1.2,2.3-0.9,3.7
		c0.3,1.2,1,2.2,1.6,3.1l0.2,0.3c0.8,1.1,1.6,2.3,3.1,2.3c0,0,0.1,0,0.1,0l10,9.1c0.1,3.1,0.2,6.2,0.4,9.2c-2.9-3.9-6.1-7.6-9.5-11
		c-0.1-0.1-0.3-0.2-0.4-0.2c-0.4-1.3-1-2.8-2.2-3.9c-0.8-0.7-2-1-3-0.9c-0.8,0.1-1.5,0.5-2,1.2c-0.5,0.7-0.6,1.5-0.3,2.4
		C188.8,101.6,189.7,102.5,190.7,102.9z"/>
	<path class="st25" d="M333.3,164.5c-0.7-0.4-2.1-0.7-4.5-1.1c-0.1,0-0.2,0-0.2,0c0,0,0,0-0.1,0c-1.1-0.5-2.4-1.2-3.8-1.9
		c-0.9-0.4-1.7-0.9-2.5-1.3l3.6-1.3c0.1,0,0.1,0,0.2-0.1c0.1,0,0.2,0,0.4,0c1.5-0.7,4-2.4,4.8-4.1c0.5-1.1,0.6-2.1,0.2-2.9
		c-0.4-0.8-1.1-1.2-2-1.3c-1.2-0.1-2.4,0.5-3,1.4c-1.1,1.5-0.9,3.5-0.6,5.1c0,0.1,0.1,0.5,0,0.6c0,0.1-0.3,0.2-0.4,0.2l-9.1,3.3
		c-0.3,0.1-0.5,0.5-0.4,0.9c0.1,0.3,0.4,0.4,0.6,0.4c0.1,0,0.2,0,0.2,0l3.8-1.4c1.1,0.5,2.3,1.2,3.6,1.8c1.3,0.7,2.7,1.4,3.8,1.9
		c0.1,0.1,0.3,0.1,0.3,0.2c0,0.1,0,0.2,0,0.4l0,0.1c0.1,1.5,0.7,3.4,2.3,4.2c0.4,0.2,0.9,0.3,1.4,0.3c0.5,0,1-0.1,1.5-0.4
		c0.8-0.4,1.3-1.1,1.4-1.9C335.2,166.3,334.3,165.1,333.3,164.5z"/>
	<path class="st25" d="M110.1,159.5c1.2-0.5,2.5-1.1,3.6-1.5c2.2,0.8,4.5,1.4,6.5,2c0.1,0,0.1,0,0.2,0c0.3,0,0.6-0.2,0.6-0.5
		c0.1-0.4-0.1-0.7-0.5-0.8c-3-0.8-6.6-1.7-9.6-3.4c0.2-1.2,0.1-1.7,0-2.8l-0.1-0.4c-0.2-1.4-0.7-2.4-1.5-3.1
		c-0.6-0.5-1.4-0.7-2.1-0.6c-0.6,0.1-1.2,0.4-1.6,0.8c-1,1.3-0.3,3.1,0.9,4.3c1.5,1.6,3.4,2.8,5.4,3.7c-0.8,0.3-1.6,0.7-2.4,1
		c-1.3,0.6-2.7,1.1-3.9,1.6c-1.4,0.5-2.7,0.9-4,1.1c-0.2-1-0.4-2.4-1.3-3.4c-0.6-0.6-1.5-1-2.4-0.9c-0.7,0.1-1.3,0.4-1.6,1
		c-0.8,1.2,0,2.9,1.1,3.7c1,0.7,2.2,1,3.4,1c1.7,0,3.5-0.5,5.2-1.2C107.4,160.7,108.7,160.1,110.1,159.5z"/>
	<path class="st25" d="M266.9,215.9c-0.3-0.3-0.6-0.5-0.9-0.7c-1.3-0.8-2.4-1.9-3.2-3.2c-0.1-0.1-0.2-0.2-0.3-0.3
		c-0.2-3.3-1-6.6-2.2-9.7c-0.1-0.3-0.5-0.5-0.9-0.4c-0.3,0.1-0.5,0.5-0.4,0.9c3.4,8.3,2.9,18.4-1.3,26.3c-0.1,0-0.3,0-0.4,0.1
		c0,0-0.1,0.1-0.1,0.1c-0.1,0-0.1-0.1-0.2-0.1c-1.5-0.2-3,0.4-3.9,1.6c-0.9,1.3-0.9,3.1,0.1,4.2c0.6,0.6,1.4,0.9,2.3,0.9
		c0.1,0,0.1,0,0.2,0c1.1-0.1,2.1-0.6,2.7-1.4c0.9-1.2,1-3,0.3-4.5c1.3-2.3,2.2-4.8,2.9-7.3c0.6,1,1.2,2,1.9,3
		c-0.5,0.6-0.8,1.4-0.8,2.6c0,1.4,0.5,3.1,1.9,3.5c0.2,0.1,0.4,0.1,0.6,0.1c1,0,2-0.7,2.4-1.7c0.4-1,0.2-2.2-0.5-3.2
		c-0.6-0.9-1.4-1.5-2.1-2.1c-0.1-0.1-0.3-0.1-0.4-0.1c-0.8-1.2-1.6-2.4-2.3-3.7c0-0.1-0.1-0.2-0.2-0.2c0.4-2.2,0.6-4.5,0.6-6.7
		c0.8,1,1.7,1.8,2.8,2.4c0.1,0.1,0.5,0.3,0.5,0.4c0,0-0.1,0.2-0.1,0.3l0,0.1c-0.5,1.2-0.4,2.5,0.2,3.7c0.6,1.2,1.7,2.1,2.9,2.3
		c0.3,0.1,0.5,0.1,0.8,0.1c0.3,0,0.6-0.1,0.9-0.2c1.2-0.5,1.6-1.9,1.5-3c-0.3-2.4-2.5-4.3-4.9-4.2
		C267.1,215.9,267,215.9,266.9,215.9z"/>
	<path class="st25" d="M219.5,214.5c0.2-0.3,0.1-0.7-0.2-0.9c-0.3-0.2-0.7-0.1-0.9,0.2c-3,4.4-8.8,10-13.6,12
		c-1.1-0.8-2.5-1-3.8-0.6c-1.4,0.4-2.6,1.7-2.9,3.1c-0.2,0.9-0.1,2.1,0.9,2.6c0.4,0.2,0.8,0.3,1.2,0.3c0.1,0,0.1,0,0.2,0
		c1.4,0,2.6-0.3,3.5-1c1.1-0.8,1.8-2,1.8-3.2c1.7-0.8,3.5-1.9,5.3-3.3c-0.1,1.3-0.1,3.5,0.1,5.2c-0.6,0.2-1.1,0.6-1.5,1.2
		c-0.5,0.7-0.6,1.6-0.7,2.3c-0.1,0.8-0.1,1.8,0.3,2.7c0.5,1,1.4,1.7,2.4,1.7c0,0,0.1,0,0.1,0c1.3-0.1,2.2-1.2,2.5-2.1
		c0.7-2,0-4.4-1.7-5.6c-0.3-1.7-0.2-4.4-0.1-6.2c0-0.1,0-0.1,0-0.2C215.1,220,217.7,217.1,219.5,214.5z"/>
	<path class="st25" d="M151.6,183.8c-0.3-0.3-0.7-0.3-0.9,0c-1.1,1.1-2,2.4-2.5,3.9c-0.2,0.6-0.4,1.4-0.2,2.3c0.1,0.7,0.5,1.2,1,1.5
		c0,0,2.6,1.1,3.3-1.5c0.7-2.6,0-4.5,0-4.5c-0.1-0.3-0.3-0.5-0.5-0.8c0,0,0-0.1-0.1-0.1C151.8,184.3,151.8,184,151.6,183.8z"/>
	<path class="st25" d="M353.5,56.7c-0.5-1.2-1.5-2.1-2.5-2.5c-0.8-0.3-1.6-0.2-2.3,0.2c-1.1,0.6-1.6,1.9-2.1,3.2
		c-5.9,15.7-15.8,29.1-25.5,42.1c-1.9,2.6-3.9,5.3-5.8,7.9c-10.6,14.7-25.7,26.1-40,30.7c-2.4-0.7-4.8-0.7-7.7,0
		c-0.3,0.1-0.6,0.2-0.9,0.3c-1.5-0.6-3-1.1-4.5-1.6c0,0,0,0,0-0.1c0.6-1.5,0.7-2.7,0.2-3.6c0-0.2-0.2-0.4-0.4-0.5
		c-0.8-0.4-1.7,0.1-2.1,0.3c-1.2,0.6-2.5,1.4-3.6,2.1c-6-1.5-12.1-2.5-18.2-3c1.2-0.7,2.2-1.6,3-2.7c0.2-0.2,0.2-0.6,0-0.8
		c-0.2-0.2-0.5-0.3-0.8-0.2c-2.4,1.1-5.4,0.8-7.6-0.8c-0.2-0.2-0.6-0.4-1.1-0.4c-0.5,0.1-0.7,0.4-0.9,0.6l0,0c-0.9,1.2-1.6,2.3-2,4
		c0,0,0,0-0.1,0c-1.8-0.1-3.6-0.2-5.4-0.2c-2.5-2.4-5.9-4.1-9.4-4.3c-4.7-0.4-9.5,1.7-12.7,5.2c-0.8,0.1-1.6,0.1-2.3,0.2
		c0.2-0.3,0.3-0.7,0.4-1c0.3-1.1,0.1-1.7-0.2-2.1c-0.3-0.4-0.9-0.7-1.6-0.8c-1.8-0.2-3.5,0.5-4.9,1.2c-2.2,1.1-4.2,2.5-6,4.2
		c-2.4,0.4-4.9,0.8-7.3,1.3c0-1-0.1-2-0.3-3c-0.1-0.7-0.4-1.5-0.9-2.2c-0.7-0.8-1.8-1.1-2.6-0.7c-0.9,0.4-1.4,1.4-1.4,2.9
		c0,1.3,0,2.7,0,4.1c-1.5,0.3-3,0.7-4.4,1.1c0,0,0.1-0.1,0.1-0.1c0.3-0.2,0.3-0.7,0.1-0.9c-0.1-0.1-0.2-0.2-0.3-0.2
		c-0.1-0.1-0.2-0.3-0.3-0.3c-1.6-0.9-3.5-1.3-5.4-1.2c-1.5,0.1-3.3,0.8-3.6,2.5c-0.1,0.4-0.1,0.7,0,1c-17.3-5-38.5-19.2-48.4-32.8
		c-11.2-15.4-18.9-34.3-25.3-51.1c0-0.1,0-0.2-0.1-0.3c0,0,0,0,0-0.1c-0.3-0.7-0.5-1.4-0.8-2.2c-0.5-1.3-1-2.6-2.1-3.2
		c-0.7-0.4-1.5-0.5-2.3-0.2c-1.1,0.4-2,1.3-2.5,2.5c-0.7,1.7-0.6,3.6-0.5,5.6c1.8,20.7,9.1,42.2,21.1,62.4c0,0.1,0,0.3,0.1,0.4
		c2.1,3.6,4.4,7,6.9,10.4c8.5,12.2,18.4,23.3,29.2,32.6c-0.2,0.1-0.3,0.2-0.5,0.3c-0.5,0.4-0.8,1-0.8,1.7c-0.1,0.8,0.2,1.7,0.7,2.3
		c0.7,0.8,1.8,1.4,3.4,1.6c0.4,0.1,0.8,0.1,1.1,0.1c1,0,1.7-0.3,2.6-0.6c0.9,0.7,1.7,1.3,2.6,2c-0.8,0.6-1.4,1.4-1.7,2.4
		c-0.2,0.8-0.1,1.7,0.4,2.3c0.3,0.5,0.8,0.7,1.3,0.8c0.1,0,0.1,0,0.2,0c0.6,0,1.1-0.3,1.5-0.6c0.9-0.5,1.7-1.2,2.2-2.1
		c0.9,0.6,1.8,1.2,2.6,1.8c-0.1,0.1-0.1,0.2-0.2,0.2c-0.6,1-0.8,2-0.5,2.9c0.3,0.8,1.1,1.4,2.2,1.7c0.5,0.1,0.9,0.2,1.4,0.2
		c0,0,0.1,0,0.1,0c0,0.2-0.1,0.5-0.1,0.7c-0.1,1.5-0.1,4.9,1.6,5.3c0.4,0.2,0.8,0.3,1.2,0.3c-0.4,7.1-2.9,13.6-7.3,19.5
		c-2.2,3-4.4,6-5.4,9.6c-0.5,1.9-0.8,3.9-0.9,5.9c-0.1,0-0.1,0.1-0.2,0.1c-0.1,5.7-0.2,11.4-0.1,17.1c0.1,7.5,0.5,15.3,3.8,21.8
		c2.3,4.3,5.7,7.6,8.9,10.8c1.6,1.6,3.3,3.2,4.8,4.9c5.8,6.6,9.6,15.3,10.8,24.5c0.2,1.4,0.3,2.9,0.4,4.4c0.3,3.3,0.6,6.7,1.6,9.9
		c1.5,4.6,4.3,8.4,7.1,12c1.4,1.8,2.8,3.7,4,5.6c5.4,8.5,7.4,19.1,8.3,29.3c0,3.8-0.1,7.7,0.7,11.3c0,1,0.1,1.9,0.1,2.9
		c0,0,0,0.1,0,0.1l0,0.2c0.8,4.5,4.9,6.1,7.9,6.9c3.3,0.9,6.7-0.1,8.9-2.5c0.1-0.1,0.2-0.3,0.4-0.4c3.5-1.9,7.6-2,11.1-0.6
		c2.3,2,4.9,3.8,8,4c1.8,0.1,3.6-0.3,5.1-1.1c2.7-1,5.5-2.7,6.1-6.3l0-0.2c0,0,0-0.1,0-0.1c0.5-13.7,1.2-30.9,9.1-43.5
		c1.2-1.9,2.6-3.8,4-5.6c2.8-3.6,5.6-7.4,7.1-12c1-3.2,1.3-6.6,1.6-9.9c0.1-1.4,0.3-2.9,0.4-4.4c1.2-9.2,5.1-17.9,10.8-24.5
		c1.5-1.7,3.2-3.4,4.8-4.9c3.3-3.2,6.7-6.5,8.9-10.8c2.5-4.9,3.4-10.6,3.7-16.3c0.8-6.5,1.1-13,0.9-19.5c0,0,0.6-10.1-5.8-17
		c-2.4-2.6-4-5.8-5.4-8.9c0.8,0.7,1.6,1.2,2.5,1.4c0.1,0,0.2,0.1,0.3,0.1c0.3,0.1,0.8,0.1,1.2,0c0.8-0.3,1.2-1.2,1.1-1.9
		c-0.1-0.6-0.4-1.2-0.8-1.7c-1.4-1.9-3.9-3.4-6-4.5l-0.5-0.3c-0.2-1-0.3-2-0.4-3c0.7-0.5,1.3-1.2,1.6-1.9c0.3-0.7,0.3-1.4,0-2
		c-0.2-0.4-0.5-0.7-0.7-0.9l0,0c-1.8-1.8-2.8-3.3-3.8-5.4c-0.2-0.3-0.5-0.5-0.8-0.3c-0.1,0-0.2,0-0.3,0c-2.3,0.8-4.9,0.1-6.7-0.5
		c-0.6-0.2-1.3-0.4-1.9-0.6c-1.6-0.6-3.4-1.2-5.1-1.4c-0.3,0-1.4-0.2-2,0.5c-0.5,0.5-0.4,1.3-0.4,1.6c0.1,1.9,0.5,3.7,1.1,5.4
		c0.4,1.1,0.9,2.4,2.1,3.2c0.8,0.6,1.7,0.8,2.5,1l7.7,1.8c1.1,0.2,2.3,0.5,3.5,0.5c0.3,0,0.7,0,1-0.1c0,0,0,0,0,0
		c0.4,4.1,1.4,8.1,3.3,11.8c-0.1,1.9,0.2,3.7,0.8,5.5c0.2,0.7,0.5,1.5,1.2,2c0.1,0.1,0.2,0.1,0.3,0.2c0.1,0.1,0.2,0.1,0.3,0.1
		c0,0,1.2,0,1.7-1.5c1.3,1.6,2.6,3.3,3.7,5.1c2.1,3.7,2.3,11.8,2.3,11.8c0.2,10.9,0.1,22.2-3.6,32.6c-2.5,5.6-7.1,9.7-11.2,14.2
		c-0.1,0-0.2,0.1-0.4,0.2c-6,5.8-10.9,12.7-12.6,21c-1.4,6.8-1.1,14.2-3.2,20.7c-0.1,0.1-0.1,0.1-0.2,0.2c-0.5,1-1,2-1.6,3
		c-5.3,8.9-12.9,16.8-14.2,27.4c-1.9,6.3-2.5,12.8-3.1,19.3c-0.2,1.6-0.4,3.1-0.6,4.7c-0.2,1.3-0.3,2.6-0.6,3.9
		c-0.1,0.1-0.2,0.2-0.2,0.4c-0.2,0.9-0.5,1.8-0.8,2.6c-0.1,0.2-0.2,0.4-0.3,0.6c-0.8,1.4-2,2.5-3.3,3.3c-1.4,0.6-3.1,0.7-4.6,0.6
		c-1.8-0.1-3.5-0.7-5.1-1.4c-1.4-1.2-3-2-4.8-2.3c-2.3-0.8-4.7-0.9-7,0.4c-1,0.3-1.9,0.8-2.8,1.5c-2.4,1.6-4.6,3-7.7,2.5
		c-2.6-0.4-5.1-2-6.3-4.5c-1.5-3-1.2-6.7-1.4-10c-0.1-2.1-0.3-4.3-0.5-6.4c-0.1-2-0.1-4-0.3-6c-0.7-8.4-2.6-16.8-7.3-24
		c-0.2-0.3-0.5-0.4-0.8-0.3c-0.2-0.2-0.4-0.4-0.6-0.6c-0.7-0.8-1.4-1.6-2.1-2.3c-1-1.4-1.9-2.7-2.9-4.1c-1.4-2-2.8-4.1-3.9-6.2
		c-0.3-0.7-0.6-1.5-0.8-2.3c-0.5-1.7-0.8-3.5-1.1-5.3c-0.6-6.8-1.6-13.6-4-19.8c0-0.1,0-0.1-0.1-0.2c0-0.1,0-0.1-0.1-0.1
		c-1.3-3.2-3-6.3-5.2-9.2c-0.2-0.2-0.3-0.5-0.5-0.7c-2.8-3.7-6-7-9.3-10.3c-1.9-2.1-3.7-4.3-5.3-6.6c-0.7-1.2-1.3-2.4-1.8-3.8
		c-2-5.4-2.3-11.3-2.6-17c-0.1-3.4-0.2-6.7-0.2-10.1c0,0,0,0,0,0c0,0,0-0.1,0-0.1c0-0.9,0-1.8,0-2.7c0-0.1,0-0.2,0-0.3
		c0-0.2,0-0.4,0-0.6c0.1-2.4,0.1-4.8,0.3-7.2c0,0-0.1,0.1-0.1,0.1c0.3-2.3,0.8-4.6,1.9-6.8c1.8-3.6,4.7-6.5,6.8-10
		c3.1-5.3,4.7-11.3,4.8-17.5c0.8-0.8,1.2-2,1.2-3.3c0-0.4,0.1-0.8,0.2-1.2c0.2-0.7,0.4-1.5,0.1-2.3c-0.1-0.3-0.5-0.5-0.8-0.4
		c0,0,0,0,0,0c-0.5-0.2-1.1-0.2-1.7-0.1c0.1-0.1,0.1-0.2,0.2-0.3c0.6-1,0.6-2.3,0.1-3.5c-0.4-1-1.3-1.8-2.2-2
		c-0.3-0.1-0.7,0.1-0.8,0.4c-0.4,0-0.7,0.1-1,0.2c-16.5-11.6-31.4-25.5-44.1-41.2c-7.5-10.9-14-22.4-19-34.6
		c-2.9-7.1-5.3-14.3-7.1-21.7c-0.9-3.7-1.6-7.4-2.2-11.2c-0.2-1.2-0.3-2.3-0.5-3.5c0-0.4,0-0.8,0-1.2c0.1-1.8,1.1-3.3,2.9-1.9
		c0.6,0.5,1,1.1,1.4,1.7c0.9,1.5,1.5,3.2,2.2,4.8c1.4,4.1,3,8.2,4.7,12.2c1,2.4,2.1,4.7,3.2,7c4.2,10.1,9.2,20,15.8,28.8
		c7,9.2,15.7,16.4,25.8,21.6c8.2,5,17.3,8.4,26.8,10.1c0.2,0,0.4,0,0.6-0.1c0.3,0,0.6-0.1,0.9-0.1c-0.4,0.4-0.8,0.9-0.9,1.5
		c-0.2,0.5-0.2,1.1,0,1.5c0.3,0.7,1.1,1.1,2.1,1.1c0.2,0,0.3,0,0.5,0c2.5-0.3,5.4-2.3,7.2-4c0.2-0.2,0.2-0.4,0.2-0.6
		c-0.1-0.2-0.2-0.4-0.4-0.5c-1.3-0.4-2.7-0.6-4-0.5c0.6-0.2,1.3-0.4,1.9-0.7c0.8-0.1,1.6-0.3,2.4-0.4c0.2,0.9,0.4,1.8,0.8,2.7
		c0.1,0.1,0.2,0.3,0.3,0.3c0.1,0.1,0.2,0.2,0.3,0.2c0.1,0.1,0.2,0.1,0.4,0.1c0.3,0,0.7-0.2,0.9-0.5c0.7-1.1,1.3-2.4,1.6-3.6
		c1.3-0.3,2.6-0.5,3.9-0.8c-1.1,1.5-2.1,3.1-2.9,4.8c-0.1,0.2-0.1,0.5,0.1,0.7c0.1,0.2,0.4,0.3,0.6,0.3c0.3,0,0.6,0.1,0.8,0.3
		c0.2,0.2,0.4,0.5,0.4,0.8c0,0.2-0.1,0.5-0.2,0.8l0,0.1c-1.7,5.8-0.1,12.3,4.1,16.7c0.3,0.3,0.6,0.6,1.1,0.7c0.2,0,0.3,0.1,0.5,0.1
		c0.8,0,1.6-0.6,1.9-1.4c0.3-0.8,0.2-1.6,0.1-2.3c-0.1-1-0.3-1.9-0.4-2.9c-0.4-2.4-0.8-4.6-0.3-6.5c0.9-3.7,3.5-7.1,6.9-8.9l0.1-0.1
		c0.5-0.3,1-0.6,1.4-1.1c0.6-0.9,0.6-1.9,0.5-2.8c0-0.4-0.1-0.8,0-1.1c0-0.4,0.2-0.9,0.3-1.3c0.6-0.1,1.2-0.1,1.7-0.2
		c-0.2,0.3-0.3,0.6-0.5,0.9c-0.2,0.4-0.4,0.9-0.3,1.4c0.1,1.1,1,1.7,1.9,1.9c0.8,0.2,1.5,0,2.2-0.1l0.1,0c2.7-0.5,4.8-0.6,6.7-0.2
		c2.6,0.6,4.2,1.5,5.2,3.1c0.2,0.3,0.6,0.4,0.9,0.2c0,0,0,0,0,0l7.6,1.6c0.4,0.1,0.9,0.2,1.5,0.2c0.3,0,0.7,0,1-0.2
		c2.1-0.7,2.5-3.3,1.8-5.6c-0.4-1.5-1.1-2.9-2-4.1c1,0,2,0,3,0c0,0.2,0,0.4,0,0.6c0,0.3,0.2,0.5,0.4,0.7c0.1,0,0.2,0,0.2,0
		c0.2,0,0.4-0.1,0.5-0.2c0.5-0.7,0.8-0.9,1.1-1c7.9,0.3,15.1,1.4,22.4,3.1c-1.9,1.5-4,3.7-4.5,6.6c0,0.2-0.2,0.9,0.3,1.4
		c0.3,0.3,0.8,0.4,1,0.4l4.9,0.5c0.1,0,0.3,0,0.4,0c0.2,0,0.4,0,0.7-0.1c0.5-0.2,0.9-0.6,1.1-0.9c1.4-1.9,2.8-3.8,4-5.9
		c0.8,0.2,1.6,0.4,2.5,0.7c-3.6,2.3-6.1,6.1-6.3,10.1c0,0.3,0.1,0.5,0.3,0.6c0.1,0.1,0.2,0.1,0.3,0.1c0.1,0,0.3,0,0.4-0.1
		c5.7-4.1,13-5.9,19.9-4.9l0.3,0c0.8,0.1,1.5,0.2,2.3,0.1c1.1-0.2,2.1-0.9,2.4-1.8c0.2-0.6,0.1-1.3-0.2-1.9
		c-0.2-0.3-0.5-0.6-0.8-0.7c-0.1-0.1-0.1-0.2-0.2-0.3c-0.6-0.4-1.2-0.7-1.7-1.1c2.4-0.9,4.7-2,6.8-3.3c1.9-1,3.7-2,5.4-3.1
		c4.8-2.9,9.3-6.5,13.3-10.3c4.6-4.4,8.8-9.3,12.5-14.5c12.1-14.5,21.7-30.9,30.3-47.8c0.2-0.1,0.4-0.3,0.6-0.3
		c1-0.2,2.4,0.4,2.5,1.6c0,0.2,0,0.4,0,0.6c-0.3,4-0.8,8-1.6,12c-2.9,15.4-8.7,30.1-16.7,43.4c-8.2,13.7-18.6,26-30.2,37
		c-1.9,1.4-3.8,2.8-5.8,4.2c-0.7-1.1-1.5-2.1-2.6-2.9c-0.2-0.2-0.8-0.6-1.4-0.4c-0.5,0.2-0.8,0.6-0.9,0.8c-0.6,0.9-0.8,2.1-0.8,3.2
		c0,0,0,0.1,0,0.1c-0.5,4-2.1,7.4-4.6,10c-1.4,1-2.7,1.9-4.1,2.8c0.9-0.7,1.7-1.5,2.2-2.4c0.2-0.3,0.1-0.7-0.2-0.9
		c-0.1-0.1-0.2-0.1-0.3-0.1c-0.1-0.1-0.3-0.1-0.4,0c-1.2,0.3-2.3,0.2-3.3-0.2c-2.3-0.9-4.5-2.1-6.4-3.7c-0.2-0.1-0.3-0.3-0.5-0.4
		c-1.2-1-2.6-2.2-4.3-2.3c-2.6-0.2-4.7,1.8-5.8,3.8c-0.9,1.5-1.5,3.3-1.7,5.1c-0.1,0.5-0.1,1,0.2,1.5c0.5,0.8,1.4,0.9,1.9,1l2.9,0.5
		c2.3,0.4,4.7,0.8,7.1,0.8c0.8,0,1.6,0,2.4-0.1c0.6-0.1,1.3-0.2,1.9-0.4c-0.3,0.1-0.6,0.2-0.9,0.4c-0.3,0.1-0.8,0.3-1.1,0.9
		c-0.3,0.8,0.1,1.5,0.3,1.8c0.7,1.1,1.5,2.2,2.5,2.8c0,0,2.1,0.6,3.5,0.1c0.1,0,0.2-0.1,0.4-0.2c0.4-0.2,0.7-0.3,1-0.4
		c0.7-0.2,1.5-0.2,2.3-0.1c0.7,0,1.4,0.1,2.2-0.1c1.4-0.2,2.6-1,3.4-1.5c0,0,0.1,0,0.1-0.1c0,0.1,0,0.2,0,0.2
		c0.4,1.9,0.9,3.7,1.5,5.5c0.1,0.2,0.2,0.4,0.4,0.4c0.1,0,0.1,0,0.2,0c0.1,0,0.3,0,0.4-0.1c1.7-1.3,3.6-2.5,5.6-3.5
		c0.2-0.1,0.4-0.4,0.4-0.7c0-0.3-0.2-0.5-0.5-0.6l-6.8-2.1c-0.1,0-0.1,0-0.2,0c3.1-2.5,5.2-6,5.7-9.7c0.3-1.8,0.1-3.6-0.3-5.3
		c11.8-9.9,22.3-21.5,30.8-34.2c13.9-20.6,22.3-43.8,24.3-66.9c0-0.4,0.1-0.7,0.1-1.1c0-0.1,0-0.2,0-0.2
		C354.1,59.5,354,58.1,353.5,56.7z"/>
	<path class="st25" d="M290.9,187.7c1.1-1.5,1.7-4.9,0.2-6.5c-0.2-0.2-0.4-0.3-0.7-0.2l-4.1,1.1c-0.5,0.1-1.2,0.3-1.7,0.7
		c-0.5,0.4-0.8,0.9-0.9,1.4c-0.1,0.4-0.2,0.8-0.2,1.2c0,0,1,4.3,1.6,5.1c1.5,0.1,1.5,0.1,1.5,0.1C288.1,190,289.8,189.2,290.9,187.7
		z"/>
</g>
</svg>
